<?xml version="1.0" encoding="UTF-8"?>
<svg version="1.1" xmlns="http://www.w3.org/2000/svg" width="500" height="500">
<path d="M0 0 C165 0 330 0 500 0 C500 165 500 330 500 500 C335 500 170 500 0 500 C0 335 0 170 0 0 Z " fill="#FEFEFE" transform="translate(0,0)"/>
<path d="M0 0 C0.94828423 0.30429932 0.94828423 0.30429932 1.91572571 0.61474609 C3.95036749 1.27207295 5.97921223 1.94537207 8.0078125 2.62109375 C8.70355377 2.84957001 9.39929504 3.07804626 10.11611938 3.31344604 C19.9435106 6.54094408 29.65685149 9.9266892 39.10449219 14.15478516 C41.3575313 15.15872723 43.62349892 16.12987244 45.890625 17.1015625 C61.52451706 23.88111659 78.65470599 31.45540446 92.1328125 42.05859375 C92.1328125 42.71859375 92.1328125 43.37859375 92.1328125 44.05859375 C91.38821777 44.15881836 90.64362305 44.25904297 89.87646484 44.36230469 C71.92227705 46.62758745 71.92227705 46.62758745 54.41796875 51.03125 C51.45967524 51.95637627 48.52478356 52.69776202 45.51171875 53.41796875 C39.19063462 54.9786159 33.12011468 57.01418174 27.0078125 59.24609375 C25.93192871 59.63611572 24.85604492 60.0261377 23.74755859 60.42797852 C7.88091293 66.07984986 7.88091293 66.07984986 -6.8671875 74.05859375 C-11.97502831 74.65654973 -15.08341263 73.26223162 -19.5546875 70.87109375 C-30.40059213 65.12914424 -41.35472928 60.69327843 -53.0546875 56.99609375 C-53.74138519 56.77726532 -54.42808289 56.55843689 -55.1355896 56.33297729 C-73.48922397 50.48950341 -91.74399321 46.36285252 -110.8671875 44.05859375 C-110.8671875 43.39859375 -110.8671875 42.73859375 -110.8671875 42.05859375 C-108.85432688 40.58412746 -106.85729035 39.24763051 -104.7421875 37.93359375 C-104.1018457 37.53180908 -103.46150391 37.13002441 -102.80175781 36.71606445 C-100.82943847 35.48711682 -98.84909728 34.27199763 -96.8671875 33.05859375 C-95.83335937 32.41535156 -94.79953125 31.77210938 -93.734375 31.109375 C-71.49169177 17.81393653 -46.86077397 8.52260295 -22.3046875 0.49609375 C-21.54937744 0.24424316 -20.79406738 -0.00760742 -20.01586914 -0.26708984 C-19.30551514 -0.49090332 -18.59516113 -0.7147168 -17.86328125 -0.9453125 C-16.95340454 -1.23643921 -16.95340454 -1.23643921 -16.02514648 -1.53344727 C-10.29943504 -2.61588463 -5.47574672 -1.77669285 0 0 Z " fill="#76C1E0" transform="translate(261.8671875,128.94140625)"/>
<path d="M0 0 C6.72640047 1.2537268 13.30164372 2.79047844 19.875 4.6875 C20.773396 4.94660156 21.67179199 5.20570313 22.59741211 5.47265625 C37.72495486 9.90911812 52.20003165 14.86951399 65.9453125 22.671875 C70.03113955 24.44832154 72.80868499 24.83097179 77.04345703 23.22509766 C79.41700217 22.1471535 81.73890542 20.99416601 84.0625 19.8125 C85.76920185 18.97583039 87.47754139 18.14249324 89.1875 17.3125 C90.42886719 16.70921875 90.42886719 16.70921875 91.6953125 16.09375 C96.67720088 13.72946399 101.80209278 11.82743653 107 10 C107.66821777 9.7618457 108.33643555 9.52369141 109.02490234 9.27832031 C135.20764021 0 135.20764021 0 145 0 C145 3.96 145 7.92 145 12 C140.61225303 13.77197474 136.36363621 15.19489286 131.75 16.25 C112.90379539 20.86155569 93.53331373 28.36582302 76.6484375 37.890625 C73.16248407 39.35081788 71.61964789 39.08102091 68 38 C64.91577119 36.70587675 61.93064431 35.24088745 58.9375 33.75 C44.078988 26.55070388 28.59362463 21.36655058 13 16 C13 19.63 13 23.26 13 27 C14.36125 27.0928125 14.36125 27.0928125 15.75 27.1875 C21.5398415 28.03928583 26.68829951 30.65160761 32 33 C33.357499 33.57557422 34.71560299 34.14972307 36.07421875 34.72265625 C45.51322117 38.75752051 54.47269466 43.28422244 63.27539062 48.58251953 C67.83181611 51.23182317 67.83181611 51.23182317 72.9375 52.15625 C77.64232815 50.37993733 81.89340855 47.93345205 86.25 45.4375 C126.62487974 23 126.62487974 23 145 23 C145 33.89 145 44.78 145 56 C142.7725 57.093125 140.545 58.18625 138.25 59.3125 C113.7807508 71.51117817 91.9856271 85.13132048 73 105 C66.79100145 99.73584906 66.79100145 99.73584906 63.87109375 97.01953125 C47.2894616 81.6162892 28.52176726 70.14463166 7.96557617 60.81567383 C7.21252197 60.4730249 6.45946777 60.13037598 5.68359375 59.77734375 C5.01900146 59.48077881 4.35440918 59.18421387 3.66967773 58.87866211 C2 58 2 58 0 56 C-0.1953125 52.9609375 -0.1953125 52.9609375 -0.125 49.375 C-0.10695312 48.18648437 -0.08890625 46.99796875 -0.0703125 45.7734375 C-0.04710937 44.85820312 -0.02390625 43.94296875 0 43 C23.16577222 50.31366525 45.62775216 64.3634317 64 80 C64.73992187 80.62777344 65.47984375 81.25554687 66.2421875 81.90234375 C67.83427634 83.26105411 69.41830814 84.62920039 71 86 C75.03548413 84.64299741 77.45865135 82.89031624 80.5 79.9375 C92.7544478 68.62430964 107.69417926 60.31583803 122.3125 52.4375 C123.27325439 51.91724243 123.27325439 51.91724243 124.25341797 51.38647461 C128.75488506 49 128.75488506 49 131 49 C131 46.03 131 43.06 131 40 C115.76473043 44.56774376 101.95180217 51.95355154 87.9453125 59.3515625 C86.7082959 60.0017334 86.7082959 60.0017334 85.44628906 60.66503906 C83.80012316 61.56336592 82.17651811 62.50417936 80.57714844 63.48339844 C74.81775223 66.97372261 74.81775223 66.97372261 70.9609375 67.09765625 C66.9247296 65.60138393 63.33290425 63.61014704 59.625 61.4375 C58.01043157 60.51981444 56.39452055 59.60448741 54.77734375 58.69140625 C53.97151855 58.23523926 53.16569336 57.77907227 52.33544922 57.30908203 C36.91551657 48.66579551 20.33589747 41.17333407 2.984375 37.47265625 C1 37 1 37 0 36 C-0.08855161 33.3337397 -0.11524673 30.69352886 -0.09765625 28.02734375 C-0.0962413 27.22970108 -0.09482635 26.43205841 -0.09336853 25.61024475 C-0.08775316 23.05262565 -0.07519812 20.49509282 -0.0625 17.9375 C-0.05748698 16.20768355 -0.05292373 14.47786574 -0.04882812 12.74804688 C-0.03777875 8.49866447 -0.02050386 4.24934688 0 0 Z " fill="#0C92C7" transform="translate(180,187)"/>
<path d="M0 0 C1.86438075 0.47216939 3.72910824 0.94297156 5.59416199 1.41247559 C10.46208056 2.6417644 15.32511702 3.8893641 20.18731689 5.14105225 C25.16564117 6.41909569 30.14843338 7.67946733 35.13085938 8.94140625 C44.87680706 11.41257259 54.61768064 13.90313844 64.35546875 16.40625 C64.35546875 17.72625 64.35546875 19.04625 64.35546875 20.40625 C61.41924411 21.24431616 58.48164808 22.07687444 55.54296875 22.90625 C54.29290039 23.26396484 54.29290039 23.26396484 53.01757812 23.62890625 C52.21513672 23.85449219 51.41269531 24.08007812 50.5859375 24.3125 C49.84754639 24.52197266 49.10915527 24.73144531 48.34838867 24.94726562 C46.35546875 25.40625 46.35546875 25.40625 43.35546875 25.40625 C43.68546875 39.26625 44.01546875 53.12625 44.35546875 67.40625 C42.37546875 67.40625 40.39546875 67.40625 38.35546875 67.40625 C38.35546875 64.76625 38.35546875 62.12625 38.35546875 59.40625 C39.01546875 59.40625 39.67546875 59.40625 40.35546875 59.40625 C40.35546875 48.51625 40.35546875 37.62625 40.35546875 26.40625 C35.73546875 27.72625 31.11546875 29.04625 26.35546875 30.40625 C24.70546875 30.40625 23.05546875 30.40625 21.35546875 30.40625 C21.35546875 36.67625 21.35546875 42.94625 21.35546875 49.40625 C14.19833076 48.85570092 7.37064257 47.66424645 0.359375 46.125 C-21.44999016 41.86712753 -46.73321543 42.71730262 -68.09375 48.8203125 C-70.64453125 49.40625 -70.64453125 49.40625 -75.64453125 49.40625 C-75.64453125 44.78625 -75.64453125 40.16625 -75.64453125 35.40625 C-60.20148078 30.75672943 -44.83183494 26.93438389 -28.64453125 26.40625 C-41.29902489 25.95448996 -53.24669958 26.18661047 -65.6394043 28.98339844 C-75.91160803 31.29101934 -83.34903564 29.96967818 -93.39453125 27.09375 C-95.61819224 26.47159252 -97.84214961 25.85049334 -100.06640625 25.23046875 C-101.6915918 24.76906494 -101.6915918 24.76906494 -103.34960938 24.29833984 C-107.66387165 23.13026676 -112.01753698 22.16142235 -116.38769531 21.22583008 C-117.13245117 20.95536865 -117.87720703 20.68490723 -118.64453125 20.40625 C-118.97453125 19.41625 -119.30453125 18.42625 -119.64453125 17.40625 C-110.66369401 15.12810234 -101.68278062 12.85025515 -92.7017746 10.57277298 C-88.52982523 9.51480389 -84.35790043 8.45673815 -80.18603516 7.3984375 C-76.14658075 6.3737303 -72.1070574 5.34929528 -68.06748962 4.3250351 C-66.54000988 3.93768403 -65.01255341 3.55024115 -63.48512268 3.16269684 C-62.75820724 2.97826775 -62.03129181 2.79383865 -61.28234863 2.6038208 C-60.56690636 2.42212719 -59.85146408 2.24043358 -59.11434174 2.0532341 C-57.69967301 1.69520714 -56.28448003 1.33924477 -54.86875153 0.98543167 C-51.39253618 0.1151684 -47.93035881 -0.78543215 -44.47973633 -1.75256348 C-28.43657803 -6.1802997 -15.78842858 -4.09977848 0 0 Z " fill="#486BA0" transform="translate(280.64453125,81.59375)"/>
<path d="M0 0 C-5.16514484 11.46410196 -12.28566495 26.1135339 -24 32 C-25.76765741 32.40707848 -27.54339065 32.78006979 -29.32421875 33.125 C-35.74582575 34.82410017 -38.30691275 37.90122955 -41.875 43.3125 C-42.45668945 44.14990723 -43.03837891 44.98731445 -43.63769531 45.85009766 C-73.26582465 89.21985262 -92.37716605 139.45728696 -83.54858398 192.65600586 C-78.99077478 216.79422316 -70.72796239 240.42294266 -59 262 C-58.401875 263.10085938 -57.80375 264.20171875 -57.1875 265.3359375 C-53.61395969 271.66939956 -49.68974758 277.44505789 -45 283 C-44.33355469 283.80050781 -43.66710937 284.60101563 -42.98046875 285.42578125 C-27.64432815 303.19359819 -7.66168932 313.62515109 13 324 C13.91394531 324.46164551 14.82789063 324.92329102 15.76953125 325.39892578 C31.51527516 333.30312972 47.69661098 340.03915732 64.08984375 346.46191406 C66.63548742 347.45956094 69.17205388 348.47394697 71.70703125 349.49902344 C75.0852952 350.86317908 78.47648738 352.18725433 81.875 353.5 C82.85968262 353.90428223 83.84436523 354.30856445 84.85888672 354.72509766 C91.98877646 357.39464093 96.05425913 356.817136 103 354 C105.17155077 353.24789201 107.34486211 352.50085576 109.51953125 351.7578125 C126.36599219 345.72724934 142.70379843 338.9599462 158.92871094 331.42041016 C161.54964062 330.20828226 164.17946201 329.02329634 166.8203125 327.85546875 C182.38189704 320.89993921 198.29750943 312.45855552 211 301 C211.79792969 300.33097656 212.59585937 299.66195313 213.41796875 298.97265625 C244.02318924 272.73283155 262.23367801 227.46277036 266 188 C266.09932327 185.2930652 266.16364177 182.61239649 266.16796875 179.90625 C266.17129715 179.15645874 266.17462555 178.40666748 266.17805481 177.63415527 C266.18308539 176.05428676 266.18546434 174.47440776 266.18530273 172.89453125 C266.18746911 170.53366502 266.2056106 168.17328265 266.22460938 165.8125 C266.27845661 151.8199126 265.03287542 138.31575337 261.375 124.75 C261.11702637 123.7818335 260.85905273 122.81366699 260.59326172 121.81616211 C256.24107944 106.0828306 249.58136516 91.41099159 242 77 C241.53335937 76.07574219 241.06671875 75.15148437 240.5859375 74.19921875 C235.81424944 65.00465024 229.88253178 56.50732595 224 48 C222.89205078 46.36224609 222.89205078 46.36224609 221.76171875 44.69140625 C218.71904895 40.49020486 216.65227913 37.69604891 211.4375 36.625 C210.6846875 36.52574219 209.931875 36.42648438 209.15625 36.32421875 C202.65612463 35.34684483 198.27823761 30.76470109 194.19921875 25.98046875 C191.38434869 22.16564486 188.91976486 18.19915083 186.5 14.125 C186.05422607 13.37516846 185.60845215 12.62533691 185.14916992 11.8527832 C182 6.38642795 182 6.38642795 182 3 C195.19038999 3.99550113 206.80083299 9.62859589 215.5625 19.6875 C217.97673024 23.14992545 218.36434837 26.02045901 218.75 30.1875 C219.65116442 37.95892779 223.7659271 42.45661252 228.59130859 48.24707031 C249.35387263 74.08332851 262.18306801 106.88360913 269 139 C269.14695312 139.69222656 269.29390625 140.38445312 269.4453125 141.09765625 C278.18882907 184.90825524 263.66342607 238.40904611 239.34228516 275.18823242 C213.85075665 312.67673188 172.55019062 331.17073256 132.6875 349.75 C132.07796478 350.0343692 131.46842957 350.3187384 130.84042358 350.61172485 C122.97215556 354.27152441 115.03544769 357.72396051 107 361 C113.45118177 364.0800402 120.14885396 365.75175991 127.0625 367.5 C128.26302002 367.80752197 129.46354004 368.11504395 130.70043945 368.43188477 C138.76315069 370.4804677 146.83180475 372.4146756 155 374 C154.31453163 378.79827862 153.8271629 381.76163139 150 385 C135.02260579 383.97089786 120.9102827 377.53104274 107.26635742 371.74658203 C105.59730347 371.0444458 105.59730347 371.0444458 103.89453125 370.328125 C102.40723511 369.69245605 102.40723511 369.69245605 100.88989258 369.04394531 C96.39969271 367.42190471 92.58973393 366.30976395 88.07421875 368.22265625 C87.01618042 368.65505615 87.01618042 368.65505615 85.93676758 369.09619141 C85.19450928 369.41507324 84.45225098 369.73395508 83.6875 370.0625 C82.08165988 370.71972659 80.47486406 371.37462224 78.8671875 372.02734375 C78.05604492 372.35976074 77.24490234 372.69217773 76.40917969 373.03466797 C70.7037619 375.32076666 64.87870849 377.28278864 59.06689453 379.27832031 C56.96113291 380.01357089 54.86932141 380.781175 52.77734375 381.5546875 C51.4350372 382.03685206 50.09259496 382.5186391 48.75 383 C47.56921875 383.433125 46.3884375 383.86625 45.171875 384.3125 C41.53154311 385.10153745 40.19288006 384.8284014 37 383 C35.19921875 381.59765625 35.19921875 381.59765625 33.6875 380.0625 C33.17574219 379.55847656 32.66398437 379.05445313 32.13671875 378.53515625 C31 377 31 377 31 374 C31.7434668 373.84966309 32.48693359 373.69932617 33.25292969 373.54443359 C49.80616427 370.17002229 65.96879592 366.34373469 82 361 C61.01019192 349.50429326 39.29267492 339.34403689 17.1875 330.1875 C-23.34053455 313.3110844 -54.13669506 287.73153849 -71.23876953 246.52490234 C-77.05077386 232.01313296 -82.17538109 217.22029103 -85.56201172 201.94482422 C-85.98364209 200.07263496 -86.44611715 198.20978742 -86.91015625 196.34765625 C-91.44501072 175.57169505 -90.49512916 151.70583577 -86 131 C-85.76724365 129.92709717 -85.76724365 129.92709717 -85.52978516 128.83251953 C-84.48894866 124.18005466 -83.2809865 119.5918439 -82 115 C-81.59007813 113.44539063 -81.59007813 113.44539063 -81.171875 111.859375 C-74.29798465 87.48830923 -61.52658061 62.46985179 -45.4453125 42.83203125 C-40.49591336 36.72039301 -38.33501794 32.63477396 -37.48828125 24.8203125 C-36.2856441 17.87388033 -31.81373265 13.316889 -26.3125 9.25 C-18.18293641 3.96946776 -9.85677568 -0.28162216 0 0 Z " fill="#FFDD64" transform="translate(162,67)"/>
<path d="M0 0 C0.50850511 45.12004977 0.40576286 90.14505734 -32.50146484 124.90209961 C-47.38943863 140.12813114 -66.008468 150.72025177 -84.625 160.75 C-85.24632812 161.08539795 -85.86765625 161.4207959 -86.5078125 161.76635742 C-90.74745762 164 -90.74745762 164 -93 164 C-93.0997571 158.09591456 -93.17188395 152.19233243 -93.21972656 146.28759766 C-93.2396956 144.28392986 -93.26688063 142.28031922 -93.30175781 140.27685547 C-93.66402535 118.91372574 -93.66402535 118.91372574 -89 109 C-88.505 107.88625 -88.01 106.7725 -87.5 105.625 C-76.97765043 87.21088825 -59.23237054 76.72593837 -41 67 C-39.91589844 66.41992188 -38.83179688 65.83984375 -37.71484375 65.2421875 C-35 64 -35 64 -32 64 C-32.33759363 78.4244553 -39.36023032 86.00996914 -49.328125 95.58203125 C-52.0043081 98.10162917 -54.73544886 100.52460283 -57.5625 102.875 C-65.44679322 109.65995822 -67.99778153 116.78773937 -69 127 C-47.9919907 114.61910424 -33.31725283 100.27344427 -23 78 C-22.67 77.29230469 -22.34 76.58460938 -22 75.85546875 C-16.63836008 63.03779831 -16.42152837 48.71726288 -15.9375 35.0625 C-15.84136419 32.46344294 -15.74153389 29.86473732 -15.63172913 27.26622009 C-15.56444827 25.66706798 -15.50481026 24.06756698 -15.45457458 22.4677887 C-15.11647704 14.27719396 -13.83798882 7.98037879 -8 2 C-4.77208445 -0.1519437 -3.71599191 -0.20086443 0 0 Z " fill="#055D9A" transform="translate(356,190)"/>
<path d="M0 0 C5.69257337 0.81439995 7.89205882 1.91977564 11.40991211 6.45019531 C17.13191401 15.62578073 15.61152432 30.48499527 16.02905273 41.07128906 C17.16336246 68.96646954 24.66245405 90.97216287 45 111 C51.90852009 117.1783513 60.12196425 124.04065475 69 127 C68.61009184 114.91284715 62.17426675 107.57863696 53.73828125 99.5234375 C51.47097417 97.43402185 49.17225143 95.42024972 46.8125 93.4375 C40.25531749 87.79778335 33.72101512 80.72676352 32 72 C31.7987784 69.27648905 31.85336082 66.73726466 32 64 C45.47000807 67.96304096 58.31077962 76.0501498 69 85 C69.89203125 85.72960937 70.7840625 86.45921875 71.703125 87.2109375 C83.14072105 96.97056287 90.59202468 109.11761193 93 124 C93.47255887 130.90402396 93.28492745 137.8357146 93.1875 144.75 C93.17242104 146.62238503 93.15873834 148.49478185 93.14648438 150.3671875 C93.11374439 154.91175434 93.06214095 159.45574399 93 164 C89.42844689 163.42267615 86.68316206 162.49331879 83.5234375 160.7421875 C82.69320068 160.28497314 81.86296387 159.82775879 81.00756836 159.35668945 C79.70444702 158.62325317 79.70444702 158.62325317 78.375 157.875 C77.4785376 157.37508545 76.5820752 156.8751709 75.65844727 156.36010742 C44.66573339 138.95778145 16.26988343 116.37925937 6.0625 80.9375 C5.52260669 78.98389896 5.0039994 77.02858907 4.515625 75.06149292 C4.0303259 73.12124435 3.52048055 71.18718256 3.0090332 69.25366211 C-0.79234892 53.96550207 -0.25192538 38.00358559 -0.125 22.375 C-0.11493889 20.19271249 -0.10581864 18.01042044 -0.09765625 15.828125 C-0.07591678 10.55198183 -0.04269293 5.27601314 0 0 Z " fill="#065D9A" transform="translate(152,190)"/>
<path d="M0 0 C16.29396477 1.91924104 33.80152055 11.16363248 45 23 C47.11979273 26.4045156 48 28.02785836 48 32 C42.58994413 34.76258172 38.07725327 36.03442609 32 35 C18.27873905 30.33261045 8.96334579 18.68652968 2.546875 6.1640625 C1.63802681 4.13515493 0.80747245 2.07134237 0 0 Z " fill="#FFDC5F" transform="translate(60,324)"/>
<path d="M0 0 C-4.18482642 13.82812208 -14.49663211 25.9235241 -27 33 C-27.62390625 33.37511719 -28.2478125 33.75023437 -28.890625 34.13671875 C-31.65169923 35.26671395 -33.96037249 35.30123722 -36.9375 35.3125 C-37.95714844 35.32925781 -38.97679687 35.34601563 -40.02734375 35.36328125 C-43.36870105 34.95494192 -45.26340652 33.91007169 -48 32 C-44.64805725 20.26820039 -35.98416167 15.00124875 -25.97265625 9.265625 C-8.18170103 0 -8.18170103 0 0 0 Z " fill="#FFDC5F" transform="translate(445,327)"/>
<path d="M0 0 C0.66 0.33 1.32 0.66 2 1 C1.71962677 4.271021 1.06084191 5.91953166 -0.9375 8.5625 C-9.60212457 15.45883384 -19.31936069 16.19596975 -30 15 C-39.19168836 13.4918839 -47.72496415 10.19773128 -56 6 C-53.87689061 3.87689061 -52.79886354 3.4471408 -50 2.5625 C-49.20053955 2.30807129 -48.4010791 2.05364258 -47.57739258 1.79150391 C-46.72685303 1.53030762 -45.87631348 1.26911133 -45 1 C-44.13076904 0.7323584 -43.26153809 0.4647168 -42.3659668 0.18896484 C-28.74270745 -3.94641659 -12.98082165 -7.88347461 0 0 Z " fill="#FFDC5F" transform="translate(191,405)"/>
<path d="M0 0 C-4.30457448 3.45150391 -8.84322876 5.1541103 -14 7 C-14.825 7.30421875 -15.65 7.6084375 -16.5 7.921875 C-26.26307513 11.07701513 -39.44777857 12.0678955 -49.12890625 8.19921875 C-52.81270487 5.83820377 -55.4234756 2.48783529 -58 -1 C-56.65488542 -4.2337098 -55.53328844 -5.71353535 -52.375 -7.25 C-35.85644318 -13.89964268 -15.59109243 -6.02888519 0 0 Z " fill="#FFDC5E" transform="translate(370,413)"/>
<path d="M0 0 C1.17948463 0.00424484 1.17948463 0.00424484 2.38279724 0.00857544 C4.85822734 0.01963961 7.33327574 0.04471659 9.80859375 0.0703125 C11.50194785 0.08036016 13.1953077 0.08948285 14.88867188 0.09765625 C19.00795628 0.11953352 23.12696064 0.15396532 27.24609375 0.1953125 C19.63635837 9.9335825 6.50942242 18.04385133 -5.75390625 20.1953125 C-13.23233327 20.81208999 -20.69624384 21.278552 -26.75390625 16.1953125 C-28.25390625 13.4453125 -28.25390625 13.4453125 -28.75390625 11.1953125 C-24.1614407 4.58216212 -18.74163438 2.18382966 -11.16677856 0.59014893 C-7.42986687 -0.02135001 -3.77839239 -0.05263493 0 0 Z " fill="#FFDC5E" transform="translate(388.75390625,376.8046875)"/>
<path d="M0 0 C4.6773121 -0.0498443 9.35446584 -0.08592757 14.03198242 -0.10986328 C15.61957496 -0.11985321 17.20714943 -0.1334498 18.79467773 -0.15087891 C43.47038865 -0.41479025 43.47038865 -0.41479025 52.609375 7.37109375 C53.78491336 8.53672589 54.90016403 9.76268454 56 11 C54.49235345 15.22141034 51.78707131 16.80349864 48 19 C36.70354532 22.59108349 26.35795052 18.74222412 16.2734375 13.61328125 C10.20985185 10.1872615 4.89581375 5.95494193 0 1 C0 0.67 0 0.34 0 0 Z " fill="#FFDC5E" transform="translate(90,374)"/>
<path d="M0 0 C4.62121374 4.62121374 4.15565563 12.82718271 4.25 19 C4.05641924 29.52168365 2.46530886 39.70467929 -4.671875 47.92578125 C-8.22315925 51.21779033 -11.02471234 52.75730304 -16 53 C-19.77603544 48.2799557 -19.6000472 43.7553823 -19 38 C-16.45681839 24.04686849 -7.76601631 11.58738941 0 0 Z " fill="#FFDC60" transform="translate(453,169)"/>
<path d="M0 0 C0.58528308 14.65375405 -1.54686711 26.70605871 -10 39 C-12.46345629 41.44966829 -14.96749332 43.31805299 -18 45 C-18.66128906 45.37511719 -19.32257813 45.75023437 -20.00390625 46.13671875 C-22.98760776 47.42712586 -25.7960662 47.12322822 -29 47 C-30.94534956 41.16395132 -30.73192675 35.8808072 -28.1875 30.25 C-24.50615031 23.58851009 -8.5041748 0 0 0 Z " fill="#FFDC5F" transform="translate(463,223)"/>
<path d="M0 0 C25.64782061 21.45763715 25.64782061 21.45763715 30 35 C30.23046875 38.078125 30.23046875 38.078125 30.1875 41.25 C30.18105469 42.30703125 30.17460938 43.3640625 30.16796875 44.453125 C30 47 30 47 29 48 C23.50469757 48.67289417 20.31243989 47.59400913 15.91015625 44.5234375 C6.82933027 37.28106095 2.11906412 25.83938475 0.234375 14.53125 C-0.21393333 9.68952004 -0.1501732 4.85560008 0 0 Z " fill="#FFDC5F" transform="translate(42,219)"/>
<path d="M0 0 C4.43808339 3.99427505 7.16688058 8.27055665 10 13.5 C10.43425293 14.29809082 10.86850586 15.09618164 11.31591797 15.91845703 C16.83692941 26.24160901 21.68521186 35.93743091 20 48 C18.97265625 50.84375 18.97265625 50.84375 18 53 C12.16670495 52.87847302 9.03897633 51.15521515 4.796875 47.16796875 C-1.95685813 39.01944291 -2.18116414 28.68633885 -2.1875 18.625 C-2.19974609 17.60921875 -2.21199219 16.5934375 -2.22460938 15.546875 C-2.23549339 9.95974886 -1.87924976 5.27378391 0 0 Z " fill="#FFDC5F" transform="translate(51,166)"/>
<path d="M0 0 C5.1636475 1.45929168 9.26941559 3.76982023 13.75 6.625 C14.80453369 7.29378174 14.80453369 7.29378174 15.88037109 7.97607422 C35.53776397 20.6132919 35.53776397 20.6132919 39 31 C39.06740865 32.56118428 39.08514456 34.1250252 39.0625 35.6875 C39.05347656 36.49574219 39.04445312 37.30398438 39.03515625 38.13671875 C39.02355469 38.75160156 39.01195312 39.36648438 39 40 C31.52856871 40.68266885 26.13717927 40.58664127 20.0859375 35.87890625 C9.24737359 26.11607996 3.05567511 14.25981717 0 0 Z " fill="#FFDC5F" transform="translate(45,273)"/>
<path d="M0 0 C9.24225924 6.69101059 15.1127139 19.1660549 18 30 C19.15350791 37.58289627 18.00577701 43.32183434 14.58203125 50.13671875 C12.55309673 52.52635273 11.05649296 52.69691919 8 53 C0.27298302 45.80223076 -1.82792525 38.6338027 -2.2421875 28.23828125 C-2.4477744 18.64788082 -1.92447171 9.41616516 0 0 Z " fill="#FFDD61" transform="translate(398,80)"/>
<path d="M0 0 C0.66 0 1.32 0 2 0 C14.38465374 34.98965281 14.38465374 34.98965281 8.0703125 49.93359375 C7 52 7 52 5 54 C1.10270131 53.73122078 -1.30887059 51.69112941 -4 49 C-9.86501053 41.23692781 -8.94527843 30.20084025 -8 21 C-6.4981135 13.46757946 -3.68385905 6.70988613 0 0 Z " fill="#FFDC60" transform="translate(73,119)"/>
<path d="M0 0 C0.33 0 0.66 0 1 0 C6.47817271 35.46138588 6.47817271 35.46138588 -2.4375 49 C-4.7626378 51.72211254 -5.88009497 52.62220755 -9 54 C-14.43940864 48.06454466 -17.47828663 43.77505357 -17.24609375 35.51171875 C-15.95880465 22.37319664 -9.30698487 9.30698487 0 0 Z " fill="#FFDC5F" transform="translate(106,77)"/>
<path d="M0 0 C-2.49576344 15.23576522 -11.16383845 29.90881376 -23.6875 38.9375 C-28.74744388 40.56050087 -33.73162165 40.23017187 -39 40 C-39.45953158 32.49431751 -37.61766924 27.71402512 -32.9375 22.0625 C-26.28533402 14.85482955 -10.52597828 0 0 0 Z " fill="#FFDC5E" transform="translate(460,276)"/>
<path d="M0 0 C0.66 0 1.32 0 2 0 C2.96380382 2.18522816 3.92109439 4.37295386 4.875 6.5625 C5.14441406 7.17158203 5.41382813 7.78066406 5.69140625 8.40820312 C9.03012959 16.10355325 10.38370696 23.00719322 10.4375 31.375 C10.48680664 32.71691406 10.48680664 32.71691406 10.53710938 34.0859375 C10.59013628 40.71912101 9.14337308 45.72908834 5 51 C2.71429766 52.7554646 0.65171231 53.80412974 -2 55 C-8.98587843 46.76024595 -8.80124459 39.59932131 -8 29 C-6.57759501 19.08076166 -3.40197401 9.39161973 0 0 Z " fill="#FFDC5F" transform="translate(430,121)"/>
<path d="M0 0 C2.94422768 11.69804747 4.98670984 28.95555254 -1 40 C-3.13898826 42.8852575 -5.43717884 45.48632883 -8 48 C-12.53363877 47.45139161 -12.53363877 47.45139161 -14.58203125 45.46875 C-18.44403011 39.28955183 -18.92673391 34.67924661 -17.5234375 27.59375 C-15.85231495 21.23140389 -8.0719384 0 0 0 Z " fill="#FFDC60" transform="translate(109,259)"/>
<path d="M0 0 C5.7754221 1.9251407 8.99720691 8.86857546 12 14 C15.66017292 21.32876003 18.53729114 28.73529717 17 37 C15.41252062 41.72214679 13.44810196 45.45822745 9 48 C1.65762584 42.66009152 -1.17139687 36.5050326 -2.6875 27.625 C-3.75693483 18.64174744 -2.85078283 9.83512388 -1 1 C-0.67 0.67 -0.34 0.34 0 0 Z " fill="#FFDD60" transform="translate(397,263)"/>
<path d="M0 0 C-1.11851697 13.64590707 -4.80262535 26.32691197 -15 36 C-20.12377367 39.60993145 -24.97136585 39.32168601 -31 39 C-32.74453538 33.76639386 -31.22599428 28.55878249 -28.87890625 23.66015625 C-24.09369096 15.94687721 -9.88715187 0 0 0 Z " fill="#FFDC5F" transform="translate(336,361)"/>
<path d="M0 0 C0.66 0.33 1.32 0.66 2 1 C5.35881906 12.5933432 3.39275771 25.65376035 -2.1328125 36.15234375 C-4.97843612 40.60923107 -8.19157666 42.85338244 -13 45 C-15.9375 45.25 -15.9375 45.25 -18 45 C-20.64558173 40.32507647 -20.68145891 36.26318268 -20 31 C-16.60937593 18.7871696 -8.24790456 9.30532822 0 0 Z " fill="#FFDC5F" transform="translate(367,335)"/>
<path d="M0 0 C3.97216854 2.93656746 7.03077703 6.21042163 10 10.125 C10.65246704 10.97952759 10.65246704 10.97952759 11.31811523 11.85131836 C17.20344243 19.73922269 21.14945224 27.17293657 21.125 37.125 C21.12886719 38.70667969 21.12886719 38.70667969 21.1328125 40.3203125 C21 43 21 43 20 45 C13.80197652 44.88932101 10.34748557 43.59274222 5.828125 39.3046875 C-1.43747473 30.14506391 -2.57428489 19.23194403 -2 8 C-1.52331458 5.210354 -0.84916118 2.70670126 0 0 Z " fill="#FFDC60" transform="translate(137,332)"/>
<path d="M0 0 C10.87186342 3.98314288 22.79693407 12.98004657 28.0625 23.375 C30.33546055 28.47096137 31.10603911 32.37992705 31 38 C23.8813581 38.71851713 18.78464473 38.38216976 12.99609375 33.9453125 C5.74389741 26.8776143 0.84333564 15.30179209 -0.30859375 5.328125 C-0.3125 3.125 -0.3125 3.125 0 0 Z " fill="#FFDC5E" transform="translate(170,359)"/>
<path d="M0 0 C11.31094621 6.81865551 21.44265496 15.8710935 25 29 C25.73251784 34.86014273 24.23175088 39.16416839 21 44 C20.01 44.495 20.01 44.495 19 45 C9.52562689 39.55068736 5.83764582 34.4496483 2.75 24 C0.76004769 16.03216675 0.21518494 8.18778704 0 0 Z " fill="#FFDC5F" transform="translate(399,222)"/>
<path d="M0 0 C0.91042735 13.35293452 -1.60061005 27.24441754 -10 38 C-13.47820102 41.56515605 -16.06036644 42.5404992 -21 43 C-24.76413286 37.35380071 -24.97066009 31.630102 -24 25 C-21.15273995 16.59711058 -9.7550989 0 0 0 Z " fill="#FFDC5E" transform="translate(106,220)"/>
<path d="M0 0 C9.41180916 1.18694923 19.19541406 6.34696386 26 13 C29.9332023 18.08648262 33.13963862 22.41878063 33.1875 28.9375 C33.20167969 29.81277344 33.21585937 30.68804687 33.23046875 31.58984375 C33 34 33 34 31 37 C23.50861209 36.86379295 19.23481028 34.3105399 14 29 C8.64308279 22.30663775 0 8.9686991 0 0 Z " fill="#FFDC60" transform="translate(391,184)"/>
<path d="M0 0 C11.71482481 -0.95199479 22.99076817 2.35031019 32 10 C38.78445202 16.74142167 38.78445202 16.74142167 39.1328125 22.0078125 C39.11111111 27.88888889 39.11111111 27.88888889 38 29 C29.82018834 29.87019273 22.90701422 26.63886554 16.375 21.875 C9.0947321 15.85750423 3.81914228 8.59307012 0 0 Z " fill="#FFDC5F" transform="translate(375,149)"/>
<path d="M0 0 C3.62484173 -0.08837761 7.24940017 -0.14084706 10.875 -0.1875 C12.39480469 -0.22520508 12.39480469 -0.22520508 13.9453125 -0.26367188 C24.5165087 -0.36531799 33.17809398 1.60951805 41 9 C43.97129291 12.71411614 44.32856009 15.29063873 44 20 C38.72524946 23.01070236 33.2357192 22.86944516 27.44140625 21.3125 C17.22848913 17.48863087 8.51730925 10.83053047 1 3 C0.67 2.01 0.34 1.02 0 0 Z " fill="#FFDC5F" transform="translate(350,117)"/>
<path d="M0 0 C-4.25394165 13.2519104 -9.14898715 26.86873664 -21.921875 34.0859375 C-25.17844644 35.60288745 -27.36169977 36 -31 36 C-33.129566 31.740868 -32.58515217 26.6130443 -32 22 C-28.04763787 12.49099591 -19.58490561 6.56135121 -10.75 2 C-10.14736328 1.68466309 -9.54472656 1.36932617 -8.92382812 1.04443359 C-5.62134165 -0.57091305 -3.48334901 -1.51749858 0 0 Z " fill="#FFDC5F" transform="translate(114,182)"/>
<path d="M0 0 C1.09957031 0.01804687 2.19914062 0.03609375 3.33203125 0.0546875 C6.01396703 0.10132986 8.69399343 0.16675881 11.375 0.25 C6.8011709 9.74977533 -2.4868515 15.56546178 -11.625 20.25 C-18.11885369 22.42631853 -24.09459933 23.40278389 -30.6875 21.25 C-31.326875 20.92 -31.96625 20.59 -32.625 20.25 C-32.0312697 13.70412341 -30.26140954 10.12869887 -25.28125 5.85546875 C-16.91192253 0.79694876 -9.69463244 -0.30627028 0 0 Z " fill="#FFDC5F" transform="translate(143.625,113.75)"/>
<path d="M0 0 C8.1489288 7.14354148 11.39267497 20.07649464 12.3125 30.5625 C11.64734004 37.8792596 9.38260419 42.27225366 3.81640625 47.06640625 C2 48 2 48 -0.08203125 47.87109375 C-3.28804074 46.4150039 -3.95922615 44.21663162 -5.2421875 41.0546875 C-8.61891844 27.44332876 -5.59834046 12.528325 0 0 Z " fill="#FFDC5F" transform="translate(385,302)"/>
<path d="M0 0 C5.39172925 4.65017336 6.66119686 12.01820412 7.24072266 18.82910156 C7.39846172 21.99289658 7.47038349 25.14497853 7.5 28.3125 C7.51828857 29.33819092 7.53657715 30.36388184 7.55541992 31.4206543 C7.50213363 38.0459165 6.42393671 42.31381939 3 48 C-0.13871412 47.92526871 -2.29269762 47.61787334 -4.69921875 45.515625 C-10.01063156 39.49688119 -10.41019738 34.60009583 -10.34765625 26.6484375 C-9.43351012 17.05503875 -5.03898397 8.10525932 0 0 Z " fill="#FFDC60" transform="translate(119,299)"/>
<path d="M0 0 C1.32451172 0.01353516 1.32451172 0.01353516 2.67578125 0.02734375 C3.67158203 0.04474609 3.67158203 0.04474609 4.6875 0.0625 C2.69917085 5.61812558 -0.62516083 9.53323138 -4.3125 14.0625 C-4.78816406 14.69800781 -5.26382813 15.33351562 -5.75390625 15.98828125 C-10.26633557 21.78630297 -16.92867364 26.80290609 -24.3125 28.0625 C-25.89461573 28.12798492 -27.47920081 28.14828381 -29.0625 28.125 C-29.86171875 28.11597656 -30.6609375 28.10695312 -31.484375 28.09765625 C-32.08765625 28.08605469 -32.6909375 28.07445312 -33.3125 28.0625 C-33.65921602 23.18921371 -33.89895757 19.28233175 -31.75 14.8125 C-23.43859341 5.43552846 -12.76201437 -0.17016019 0 0 Z " fill="#FFDC5F" transform="translate(125.3125,145.9375)"/>
<path d="M0 0 C2 1 2 1 2.68359375 2.99609375 C2.93238281 3.80175781 3.18117188 4.60742188 3.4375 5.4375 C4.35142244 7.94421187 4.35142244 7.94421187 6 10 C9.62441545 11.39118977 13.13835459 11.79360171 17 12 C14.66666667 14.33333333 12.33333333 16.66666667 10 19 C9.97831363 21.90675183 9.97831363 21.90675183 10.375 25.125 C10.48585938 26.22070312 10.59671875 27.31640625 10.7109375 28.4453125 C10.80632812 29.28835938 10.90171875 30.13140625 11 31 C6.25 29.1484375 6.25 29.1484375 4 27.8125 C1.25084612 26.69565624 -0.19246482 27.10980592 -3 28 C-3.886875 28.53625 -4.77375 29.0725 -5.6875 29.625 C-6.8321875 30.305625 -6.8321875 30.305625 -8 31 C-8.66 30.67 -9.32 30.34 -10 30 C-9.835 29.484375 -9.67 28.96875 -9.5 28.4375 C-8.79682823 25.00953761 -8.51675362 22.50353622 -9 19 C-11.07810288 16.62576745 -13.4168452 14.79898281 -16 13 C-15.67 12.34 -15.34 11.68 -15 11 C-13.41736123 10.953107 -11.83289002 10.96253515 -10.25 11 C-7.51574123 10.92690751 -7.51574123 10.92690751 -5 10 C-2.61231788 6.92336115 -1.26408976 3.66586031 0 0 Z " fill="#FFDD61" transform="translate(256,373)"/>
<path d="M0 0 C0.05816623 3.41659491 0.09365195 6.83306205 0.125 10.25 C0.15013672 11.70212891 0.15013672 11.70212891 0.17578125 13.18359375 C0.18222656 14.11816406 0.18867188 15.05273438 0.1953125 16.015625 C0.20578613 16.87446289 0.21625977 17.73330078 0.22705078 18.61816406 C-0.09531568 21.99989223 -1.30538658 24.15438367 -3.4375 26.75 C-5 28 -5 28 -8 28 C-7.0022242 25.00667261 -6.2477975 24.05233685 -4 22 C-4.99 22.33 -5.98 22.66 -7 23 C-9.33299825 23.03954234 -11.66708189 23.04401732 -14 23 C-14.33 23.66 -14.66 24.32 -15 25 C-15.30694355 17.6333548 -15.36796946 10.60288822 -10.5625 4.625 C-6.96953118 0.9443978 -5.08241145 -0.27472494 0 0 Z " fill="#226A9E" transform="translate(356,190)"/>
<path d="M0 0 C5.28 0 10.56 0 16 0 C16 5.28 16 10.56 16 16 C10.72 16 5.44 16 0 16 C0 10.72 0 5.44 0 0 Z " fill="#6DACC8" transform="translate(252,171)"/>
<path d="M0 0 C0.66 0.33 1.32 0.66 2 1 C0.68 2.32 -0.64 3.64 -2 5 C-1.01 5.66 -0.02 6.32 1 7 C1.58203125 10.1875 1.58203125 10.1875 1.8125 14 C1.90144531 15.258125 1.99039062 16.51625 2.08203125 17.8125 C2 21 2 21 0 23 C-3.2578125 22.9765625 -3.2578125 22.9765625 -7.125 22.625 C-8.40632813 22.51414062 -9.68765625 22.40328125 -11.0078125 22.2890625 C-11.99523437 22.19367188 -12.98265625 22.09828125 -14 22 C-14.33 19.03 -14.66 16.06 -15 13 C-13.68 12.34 -12.36 11.68 -11 11 C-9.0209125 9.15911693 -7.12546225 7.3144544 -5.25 5.375 C-4.74339844 4.859375 -4.23679687 4.34375 -3.71484375 3.8125 C-2.47196098 2.54616661 -1.23534724 1.2736856 0 0 Z " fill="#DBDEE0" transform="translate(266,278)"/>
<path d="M0 0 C1.65 0 3.3 0 5 0 C6 2 6 2 5.0625 5.125 C4.711875 6.07375 4.36125 7.0225 4 8 C5.32 7.67 6.64 7.34 8 7 C8.33 7.99 8.66 8.98 9 10 C8.01 10 7.02 10 6 10 C6 10.99 6 11.98 6 13 C7.32 13.33 8.64 13.66 10 14 C9 15 9 15 6.93359375 15.09765625 C3.46679688 15.04882812 3.46679688 15.04882812 0 15 C0 10.05 0 5.1 0 0 Z " fill="#65A5C0" transform="translate(253,171)"/>
<path d="M0 0 C0.08096803 1.45742463 0.13917774 2.91612807 0.1875 4.375 C0.22230469 5.18710938 0.25710938 5.99921875 0.29296875 6.8359375 C0.19628906 7.55007812 0.09960938 8.26421875 0 9 C-3 11 -3 11 -6 11 C-6 10.34 -6 9.68 -6 9 C-6.66 9 -7.32 9 -8 9 C-8 10.32 -8 11.64 -8 13 C-8.66 13 -9.32 13 -10 13 C-11.2518241 10.04114305 -11.00203521 9.00524871 -9.8125 5.9375 C-6.97411169 1.33735343 -5.47715282 0 0 0 Z " fill="#0B5D97" transform="translate(355,190)"/>
<path d="M0 0 C0.66 1.32 1.32 2.64 2 4 C3.65 4 5.3 4 7 4 C7 4.66 7 5.32 7 6 C6.01 6.495 6.01 6.495 5 7 C4.34444881 9.52733235 4.34444881 9.52733235 4 12 C3.401875 11.814375 2.80375 11.62875 2.1875 11.4375 C-0.16408762 10.77906313 -0.16408762 10.77906313 -3 12 C-3.12375 11.195625 -3.2475 10.39125 -3.375 9.5625 C-3.684375 8.2940625 -3.684375 8.2940625 -4 7 C-4.66 6.67 -5.32 6.34 -6 6 C-6 5.34 -6 4.68 -6 4 C-4.35 4 -2.7 4 -1 4 C-0.67 2.68 -0.34 1.36 0 0 Z " fill="#FFDE67" transform="translate(268,358)"/>
<path d="M0 0 C0.4125 0.45375 0.825 0.9075 1.25 1.375 C3.06408095 3.05950374 4.75285627 3.99265971 7 5 C6.34 5.66 5.68 6.32 5 7 C4.83312552 9.58354218 4.83312552 9.58354218 5 12 C2.36 11.67 -0.28 11.34 -3 11 C-3.309375 10.21625 -3.61875 9.4325 -3.9375 8.625 C-4.92875038 6.07669872 -4.92875038 6.07669872 -6 4 C-4.35 4 -2.7 4 -1 4 C-0.67 2.68 -0.34 1.36 0 0 Z " fill="#FFDD63" transform="translate(236,359)"/>
<path d="M0 0 C0.33 0 0.66 0 1 0 C1 6.93 1 13.86 1 21 C-0.65 19.35 -2.3 17.7 -4 16 C-4.763125 15.29875 -5.52625 14.5975 -6.3125 13.875 C-8 12 -8 12 -8 9 C-7.34 9 -6.68 9 -6 9 C-6 9.66 -6 10.32 -6 11 C-4.02 10.34 -2.04 9.68 0 9 C0 6.03 0 3.06 0 0 Z " fill="#4E85B1" transform="translate(355,190)"/>
<path d="M0 0 C-1 2 -2 4 -3 6 C0.465 5.505 0.465 5.505 4 5 C4.6875 7.3125 4.6875 7.3125 5 10 C3.75 11.8125 3.75 11.8125 2 13 C1.01 13 0.02 13 -1 13 C-0.0022242 10.00667261 0.7522025 9.05233685 3 7 C0.69 7.33 -1.62 7.66 -4 8 C-4.6875 5.6875 -4.6875 5.6875 -5 3 C-3.40083326 0.79162689 -2.76966516 0 0 0 Z " fill="#6AA2CA" transform="translate(349,205)"/>
<path d="M0 0 C0 1.98 0 3.96 0 6 C-1.65 6.33 -3.3 6.66 -5 7 C-7 4 -7 4 -6.8125 1.875 C-6.544375 1.25625 -6.27625 0.6375 -6 0 C-3 -1 -3 -1 0 0 Z " fill="#025A99" transform="translate(355,193)"/>
<path d="M0 0 C2.64 0 5.28 0 8 0 C6.02 2.31 4.04 4.62 2 7 C1.34 6.67 0.68 6.34 0 6 C0 4.02 0 2.04 0 0 Z " fill="#117FAC" transform="translate(251,285)"/>
<path d="M0 0 C0.66 0 1.32 0 2 0 C2.33 0.66 2.66 1.32 3 2 C3.99 2.33 4.98 2.66 6 3 C7.75 5.3125 7.75 5.3125 9 8 C8.578125 10.16796875 8.578125 10.16796875 8 12 C6.84545838 10.75803878 5.70167438 9.50607155 4.5625 8.25 C3.92441406 7.55390625 3.28632813 6.8578125 2.62890625 6.140625 C1.00918675 4.01207275 0.41732744 2.60976595 0 0 Z " fill="#6FA4CB" transform="translate(347,199)"/>
<path d="M0 0 C0.33 0 0.66 0 1 0 C0.125 7.75 0.125 7.75 -1 10 C-1.66 10 -2.32 10 -3 10 C-2.25 2.25 -2.25 2.25 0 0 Z " fill="#FFDD63" transform="translate(83,176)"/>
<path d="M0 0 C0.66 0.33 1.32 0.66 2 1 C-2.18461538 6.78461538 -2.18461538 6.78461538 -6.3125 7.875 C-7.6428125 7.936875 -7.6428125 7.936875 -9 8 C-6.14723863 5.06799526 -3.34920216 2.35684596 0 0 Z " fill="#286CA1" transform="translate(305,305)"/>
<path d="M0 0 C0.66 0.33 1.32 0.66 2 1 C0.68 2.32 -0.64 3.64 -2 5 C-1.34 5.66 -0.68 6.32 0 7 C-2.31 7 -4.62 7 -7 7 C-7 6.34 -7 5.68 -7 5 C-5.46875 3.7109375 -5.46875 3.7109375 -3.5 2.375 C-2.8503125 1.92898437 -2.200625 1.48296875 -1.53125 1.0234375 C-1.0259375 0.68570313 -0.520625 0.34796875 0 0 Z " fill="#93C8E1" transform="translate(158,166)"/>
<path d="M0 0 C2.19510603 0.25361783 4.38228739 0.57765908 6.5625 0.9375 C8.35880859 1.22947266 8.35880859 1.22947266 10.19140625 1.52734375 C11.11824219 1.68332031 12.04507813 1.83929688 13 2 C13 2.33 13 2.66 13 3 C11.41986783 3.25028811 9.83557694 3.47440946 8.25 3.6875 C6.92742187 3.87892578 6.92742187 3.87892578 5.578125 4.07421875 C2.44323483 3.98397191 1.28176413 3.07384637 -1 1 C-0.67 0.67 -0.34 0.34 0 0 Z " fill="#FFF5D4" transform="translate(186,395)"/>
<path d="M0 0 C0.66 0.99 1.32 1.98 2 3 C0.02 5.64 -1.96 8.28 -4 11 C-4.66 10.67 -5.32 10.34 -6 10 C-4.02 6.7 -2.04 3.4 0 0 Z " fill="#296CA0" transform="translate(328,278)"/>
<path d="M0 0 C0.33 0.66 0.66 1.32 1 2 C-0.98 4.31 -2.96 6.62 -5 9 C-5.66 8.67 -6.32 8.34 -7 8 C-4.69 5.36 -2.38 2.72 0 0 Z " fill="#23689D" transform="translate(280,281)"/>
<path d="M0 0 C2.97 0.495 2.97 0.495 6 1 C6 1.99 6 2.98 6 4 C4.35 3.67 2.7 3.34 1 3 C0.67 4.32 0.34 5.64 0 7 C0 4.69 0 2.38 0 0 Z " fill="#1B669D" transform="translate(152,190)"/>
<path d="M0 0 C1.35015859 4.05047576 0.62084998 6.7920168 0 11 C-0.33 11 -0.66 11 -1 11 C-1.144375 10.236875 -1.28875 9.47375 -1.4375 8.6875 C-1.9632594 5.91827092 -1.9632594 5.91827092 -3 3 C-2.01 2.01 -1.02 1.02 0 0 Z " fill="#FFF9E4" transform="translate(92,161)"/>
<path d="M0 0 C-0.33 0.99 -0.66 1.98 -1 3 C-2.84765625 3.73046875 -2.84765625 3.73046875 -5.0625 4.1875 C-5.79597656 4.34605469 -6.52945312 4.50460938 -7.28515625 4.66796875 C-8.13400391 4.83232422 -8.13400391 4.83232422 -9 5 C-4.5 0 -4.5 0 0 0 Z " fill="#276CA0" transform="translate(355,190)"/>
<path d="M0 0 C0.66 0 1.32 0 2 0 C1.67 1.65 1.34 3.3 1 5 C-0.32 5.33 -1.64 5.66 -3 6 C-3 5.01 -3 4.02 -3 3 C-2.01 3 -1.02 3 0 3 C0 2.01 0 1.02 0 0 Z " fill="#9BC6DC" transform="translate(262,178)"/>
<path d="M0 0 C-0.33 0.99 -0.66 1.98 -1 3 C-4.41270242 4.51675663 -7.44169126 3.72783588 -11 3 C-11 2.67 -11 2.34 -11 2 C-9.5422647 1.664061 -8.08378894 1.33133376 -6.625 1 C-5.40683594 0.7215625 -5.40683594 0.7215625 -4.1640625 0.4375 C-2 0 -2 0 0 0 Z " fill="#FFF7DA" transform="translate(319,398)"/>
<path d="M0 0 C0.99 0.33 1.98 0.66 3 1 C0.03 3.475 0.03 3.475 -3 6 C-3.66 5.67 -4.32 5.34 -5 5 C-3.35 3.35 -1.7 1.7 0 0 Z " fill="#2E6FA0" transform="translate(316,295)"/>
</svg>
