<?xml version="1.0" encoding="UTF-8"?>
<svg version="1.1" xmlns="http://www.w3.org/2000/svg" width="500" height="500">
<path d="M0 0 C165 0 330 0 500 0 C500 165 500 330 500 500 C335 500 170 500 0 500 C0 335 0 170 0 0 Z " fill="#FEFEFD" transform="translate(0,0)"/>
<path d="M0 0 C1.53894326 0.3950424 3.07816443 0.78900355 4.61764526 1.1819458 C8.65507641 2.21546128 12.68869203 3.26315162 16.72161865 4.31408691 C20.77841804 5.36875604 24.83851248 6.41056536 28.8984375 7.453125 C33.49113927 8.63321095 38.08350911 9.81446131 42.67337036 11.0055542 C52.12107518 13.45695607 61.58172406 15.85119355 71.0546875 18.203125 C71.0546875 19.193125 71.0546875 20.183125 71.0546875 21.203125 C68.89033907 21.85668527 66.72307313 22.5005868 64.5546875 23.140625 C63.348125 23.50027344 62.1415625 23.85992187 60.8984375 24.23046875 C56.91169025 25.23931028 53.13354681 25.72664007 49.0546875 26.203125 C49.17264179 31.02711414 49.29686768 35.85088458 49.42700195 40.67456055 C49.47041047 42.31676803 49.51208108 43.95902239 49.55200195 45.60131836 C49.6095619 47.95701245 49.67329642 50.31246928 49.73828125 52.66796875 C49.76334999 53.77578957 49.76334999 53.77578957 49.78892517 54.9059906 C49.59016763 58.34613127 49.59016763 58.34613127 51.0546875 61.203125 C51.19583911 63.87371351 51.09715857 66.52744738 51.0546875 69.203125 C50.0646875 69.533125 49.0746875 69.863125 48.0546875 70.203125 C48.54646484 70.45368652 49.03824219 70.70424805 49.54492188 70.96240234 C58.59597876 75.59508118 67.54596088 80.32398646 76.1796875 85.703125 C76.85966797 86.12384277 77.53964844 86.54456055 78.24023438 86.97802734 C82.92624408 89.94623815 82.92624408 89.94623815 84.0546875 92.203125 C83.21623291 92.3482251 82.37777832 92.4933252 81.51391602 92.64282227 C50.44312308 98.08153522 21.20064761 105.87987526 -7.46411133 119.32177734 C-17.09072858 123.80043359 -17.09072858 123.80043359 -20.81689453 122.6003418 C-23.08970033 121.66899626 -25.29436338 120.6427283 -27.5078125 119.578125 C-29.13894192 118.82469545 -30.77045227 118.07209005 -32.40234375 117.3203125 C-33.18947754 116.95260742 -33.97661133 116.58490234 -34.78759766 116.20605469 C-39.44400917 114.04170319 -44.16916933 112.08613317 -48.9453125 110.203125 C-49.68104492 109.90937988 -50.41677734 109.61563477 -51.17480469 109.31298828 C-73.09253217 100.64854229 -95.77861123 96.14935668 -118.9453125 92.203125 C-115.8162609 88.77423799 -112.35646944 86.40818072 -108.3828125 84.078125 C-107.72861328 83.69197021 -107.07441406 83.30581543 -106.40039062 82.90795898 C-80.89881205 68.02108386 -53.5739804 55.67147315 -24.9453125 48.203125 C-24.30464844 48.00460938 -23.66398437 47.80609375 -23.00390625 47.6015625 C-6.82412096 44.46999115 14.72459707 55.44986399 29.0546875 62.203125 C36.9746875 65.668125 36.9746875 65.668125 45.0546875 69.203125 C45.3846875 55.673125 45.7146875 42.143125 46.0546875 28.203125 C37.6396875 30.183125 37.6396875 30.183125 29.0546875 32.203125 C28.7246875 38.143125 28.3946875 44.083125 28.0546875 50.203125 C22.52610729 51.30884104 22.52610729 51.30884104 18.4921875 49.953125 C-7.52860367 42.41439111 -36.77339574 43.02545212 -62.72265625 50.49609375 C-65.9453125 51.203125 -65.9453125 51.203125 -69.9453125 50.203125 C-69.9453125 45.913125 -69.9453125 41.623125 -69.9453125 37.203125 C-50.43731494 29.78887048 -30.71300493 27.53688121 -9.9453125 27.203125 C-14.08551584 27.15273398 -18.22554484 27.11695105 -22.3659668 27.09326172 C-23.76704018 27.08336014 -25.16809383 27.06983531 -26.5690918 27.05224609 C-39.64388844 26.89251089 -52.25782961 27.6406307 -64.7734375 31.8125 C-74.83779913 33.0519534 -86.3570132 28.48535349 -96.1328125 26.078125 C-97.67245364 25.7015268 -99.21216673 25.3252226 -100.75195312 24.94921875 C-104.48390984 24.03723675 -108.21487444 23.12129833 -111.9453125 22.203125 C-112.2753125 20.883125 -112.6053125 19.563125 -112.9453125 18.203125 C-103.96447526 15.92497734 -94.98356187 13.64713015 -86.00255585 11.36964798 C-81.83060648 10.31167889 -77.65868168 9.25361315 -73.48681641 8.1953125 C-69.447362 7.1706053 -65.40783865 6.14617028 -61.36827087 5.1219101 C-59.84079113 4.73455903 -58.31333466 4.34711615 -56.78590393 3.95957184 C-56.05898849 3.77514275 -55.33207306 3.59071365 -54.58312988 3.4006958 C-53.86744591 3.21900219 -53.15176193 3.03730858 -52.41439056 2.8501091 C-51.00204619 2.49254778 -49.58929542 2.13658749 -48.17612457 1.78230667 C-44.66634884 0.90147956 -41.16616165 -0.00336962 -37.67504883 -0.95568848 C-23.83530268 -4.68728455 -13.69359169 -3.59900022 0 0 Z " fill="#76C1E0" transform="translate(266.9453125,38.796875)"/>
<path d="M0 0 C7.75335253 0.70485023 13.06980225 1.39225268 20 4 C21.82790732 4.62684517 23.65742974 5.24899434 25.48828125 5.8671875 C39.0455434 10.52612761 52.16002237 15.5490566 65.08984375 21.765625 C69.70890669 23.72485169 71.64572965 24.53530281 76.46875 22.62890625 C77.81777869 21.9505008 79.16121411 21.26090154 80.5 20.5625 C98.94708105 11.43392254 123.10043311 0 144 0 C144 3.96 144 7.92 144 12 C139.94435326 13.6222587 136.47053335 14.62510686 132.25 15.5625 C114.34967842 19.87226703 97.37808705 26.82744104 81.05883789 35.27734375 C80.07520264 35.77621094 79.09156738 36.27507812 78.078125 36.7890625 C77.21606445 37.23975098 76.35400391 37.69043945 75.46582031 38.15478516 C71.75501915 39.42674492 69.32052153 38.55003493 65.7902832 37.07958984 C65.05124756 36.71043457 64.31221191 36.3412793 63.55078125 35.9609375 C62.71192383 35.5486792 61.87306641 35.1364209 61.00878906 34.71166992 C60.11901367 34.27056885 59.22923828 33.82946777 58.3125 33.375 C43.27001581 26.08187184 28.11333717 20.42606856 12 16 C12.33 19.3 12.66 22.6 13 26 C14.15371094 26.36609375 15.30742187 26.7321875 16.49609375 27.109375 C34.33732959 32.96236994 52.08975234 40.54581328 67.765625 50.98828125 C70.67036264 52.30353833 71.95019352 51.82316419 75 51 C77.34393914 49.928295 77.34393914 49.928295 79.66796875 48.55859375 C80.55226563 48.06109619 81.4365625 47.56359863 82.34765625 47.05102539 C83.28480469 46.51856201 84.22195313 45.98609863 85.1875 45.4375 C125.52098194 23 125.52098194 23 144 23 C144 34.22 144 45.44 144 57 C140.7 58.32 137.4 59.64 134 61 C110.93401268 71.54313592 90.71115656 85.82276037 73 104 C69.21178922 102.41937126 66.75115185 100.01838747 63.8125 97.1875 C45.36705142 79.93831039 23.45136895 66.38054758 0 57 C0 52.38 0 47.76 0 43 C26.68076893 52.70209779 49.44506132 67.69358931 71 86 C74.58498356 84.47760972 76.85831918 82.33898213 79.625 79.625 C92.24162227 67.7752062 108.50763359 58.06836488 124.26464844 50.98144531 C124.98942383 50.65241211 125.71419922 50.32337891 126.4609375 49.984375 C127.11626465 49.70303711 127.7715918 49.42169922 128.44677734 49.13183594 C130.18027768 48.09153512 130.18027768 48.09153512 130.72119141 45.98535156 C131.07735497 43.50525083 131.07735497 43.50525083 131 40 C122.63358993 42.38090207 114.80604499 45.16812635 107 49 C106.10474609 49.4333667 106.10474609 49.4333667 105.19140625 49.87548828 C96.56883232 54.05448727 88.16597523 58.50544237 79.890625 63.3359375 C78.45976562 64.15964844 78.45976562 64.15964844 77 65 C76.31421875 65.42539063 75.6284375 65.85078125 74.921875 66.2890625 C72.16902528 67.30739309 70.79478098 66.90739642 68 66 C65.50698333 64.70090237 63.103164 63.36603907 60.6875 61.9375 C53.2184449 57.6242248 45.61137245 53.6864158 37.85449219 49.91870117 C36.62147602 49.30787444 35.39781699 48.67777216 34.18457031 48.02856445 C28.27543023 44.90662482 22.09555727 42.86978834 15.75 40.8125 C14.67492187 40.45736328 13.59984375 40.10222656 12.4921875 39.73632812 C8.34061381 38.37231358 4.24141721 37.0603543 0 36 C0 24.12 0 12.24 0 0 Z " fill="#0A92C7" transform="translate(178,146)"/>
<path d="M0 0 C-13.63894878 27.20357087 -13.63894878 27.20357087 -25 33 C-26.61173514 33.2813374 -28.23339116 33.50969922 -29.859375 33.69140625 C-34.77586675 34.61243174 -36.8803623 36.19259163 -39.84033203 40.15112305 C-40.56905518 41.22100464 -40.56905518 41.22100464 -41.3125 42.3125 C-42.12243408 43.43942261 -42.12243408 43.43942261 -42.94873047 44.58911133 C-44.67622084 47.03243333 -46.3451768 49.50695721 -48 52 C-48.55123535 52.8259668 -49.1024707 53.65193359 -49.67041016 54.50292969 C-81.807529 103.25162422 -93.63820588 153.74891775 -81.91723633 211.08203125 C-80.4327456 217.70642811 -78.23982611 224.10120611 -76 230.5 C-75.64217941 231.53216141 -75.64217941 231.53216141 -75.27713013 232.58517456 C-57.94001049 282.34630056 -29.69760994 309.20061933 17 332 C36.11918073 341.15103841 55.58929721 349.32248565 75.46533203 356.68408203 C77.91086851 357.59452834 80.33918415 358.52478555 82.76513672 359.48388672 C83.98604004 359.95197754 85.20694336 360.42006836 86.46484375 360.90234375 C87.55273193 361.32894287 88.64062012 361.75554199 89.76147461 362.19506836 C98.02542707 364.24906393 106.35187408 360.01367617 114.0625 357.25 C114.73696167 357.01001282 115.41142334 356.77002563 116.10632324 356.52276611 C131.38859413 351.06442788 146.22636922 344.69982389 161 338 C161.94359375 337.57444824 162.8871875 337.14889648 163.859375 336.71044922 C186.15677361 326.60068185 206.31730082 315.04834225 224 298 C224.66644531 297.38511719 225.33289063 296.77023437 226.01953125 296.13671875 C247.66331477 275.6655104 259.78353992 241.50690411 266.9375 213.375 C267.12465576 212.64369873 267.31181152 211.91239746 267.50463867 211.15893555 C270.47364386 198.67413697 271.3524019 186.20003551 271.31567383 173.42138672 C271.31251148 171.13330416 271.33610267 168.84651836 271.36132812 166.55859375 C271.40575935 156.07359714 270.13981453 146.25214938 268 136 C267.85513153 135.2868161 267.71026306 134.5736322 267.56100464 133.83883667 C260.82833048 100.71658882 244.18946376 63.18946376 220 39 C218.13359099 38.57856505 218.13359099 38.57856505 216 38.3125 C206.47539762 36.29444621 200.27988641 29.9405984 194.9609375 22.125 C185 6.25099602 185 6.25099602 185 3 C192.00726166 3 197.07926252 4.65324614 203.25 7.75 C203.92289062 8.08515625 204.59578125 8.4203125 205.2890625 8.765625 C213.45534326 13.02629322 219.3454304 18.3619264 223 27 C223.31640625 29.7421875 223.31640625 29.7421875 223.375 32.5 C223.64002307 38.27429049 225.76149153 40.80137273 229.50390625 45.05078125 C262.70799791 84.28253275 279.77320352 139.239734 275.7265625 190.18359375 C273.94820169 205.23255268 270.43481785 220.84500817 265 235 C264.72816895 235.71833008 264.45633789 236.43666016 264.17626953 237.17675781 C256.41449404 257.58172187 247.39591526 277.34186949 233 294 C232.154375 294.9796875 231.30875 295.959375 230.4375 296.96875 C218.31825026 310.73180515 203.62002342 320.91173386 187.64453125 329.734375 C186.86760925 330.16425217 186.09068726 330.59412933 185.29022217 331.03703308 C176.87682002 335.6613994 168.33977877 340.02660503 159.75 344.3125 C158.94292603 344.71642975 158.13585205 345.1203595 157.30432129 345.53652954 C145.91593954 351.22415224 134.43830757 356.64389786 122.75 361.6875 C121.78507629 362.10474838 121.78507629 362.10474838 120.80065918 362.53042603 C110.41826201 367 110.41826201 367 108 367 C108 367.66 108 368.32 108 369 C109.918125 369.3403125 109.918125 369.3403125 111.875 369.6875 C116.79438125 370.66170331 121.56201931 371.98573454 126.375 373.375 C134.05536251 375.58308374 141.77414504 377.26778409 149.62646484 378.74365234 C150.83230225 378.97109131 150.83230225 378.97109131 152.0625 379.203125 C152.77535156 379.33364258 153.48820313 379.46416016 154.22265625 379.59863281 C156 380 156 380 158 381 C157.46884894 385.51478398 155.63379708 388.34666857 153 392 C135.78838747 389.68473232 115.7778079 384.36298462 101.14160156 374.78369141 C95.25163673 372.62833492 88.34099675 375.70250815 82.765625 377.80078125 C82.00634705 378.07842819 81.24706909 378.35607513 80.46478271 378.64213562 C78.05685001 379.52432864 75.65334709 380.41789929 73.25 381.3125 C71.65394796 381.90121038 70.05759571 382.48910751 68.4609375 383.07617188 C67.29141541 383.50626053 67.29141541 383.50626053 66.0982666 383.94503784 C63.08447339 385.05066576 60.06830779 386.14972104 57.05151367 387.24713135 C55.14988301 387.94499563 53.25526369 388.66188534 51.36132812 389.38037109 C49.78254883 389.95585693 49.78254883 389.95585693 48.171875 390.54296875 C47.28081055 390.87707764 46.38974609 391.21118652 45.47167969 391.55541992 C42.34846703 392.11719099 40.78724438 391.43508754 38 390 C36.19921875 388.59765625 36.19921875 388.59765625 34.6875 387.0625 C34.17574219 386.55847656 33.66398437 386.05445313 33.13671875 385.53515625 C32 384 32 384 32 381 C32.76852295 380.81937012 33.5370459 380.63874023 34.32885742 380.45263672 C59.81331148 375.52284317 59.81331148 375.52284317 84 367 C52.32106345 351.62092098 52.32106345 351.62092098 20.125 337.375 C-21.53040235 319.76317804 -54.50407901 294.79217515 -72.26025391 251.95996094 C-77.30354707 239.19821948 -81.98383376 226.27069194 -85.5 213 C-85.69980469 212.27683594 -85.89960937 211.55367187 -86.10546875 210.80859375 C-89.78044932 196.97474969 -91.59462879 183.4109467 -91.5 169.125 C-91.49757294 168.37331543 -91.49514587 167.62163086 -91.49264526 166.84716797 C-91.20561173 120.52202764 -71.77156481 71.17137935 -40.78515625 36.5234375 C-38.73218501 33.62142564 -38.54019035 32.13160793 -38.5 28.625 C-38.03643955 21.26721077 -35.73234099 17.40521619 -30.375 12.4375 C-21.25712673 4.90975676 -11.9760894 -0.26066458 0 0 Z " fill="#FFDD64" transform="translate(156,7)"/>
<path d="M0 0 C1.53894326 0.3950424 3.07816443 0.78900355 4.61764526 1.1819458 C8.65507641 2.21546128 12.68869203 3.26315162 16.72161865 4.31408691 C20.77841804 5.36875604 24.83851248 6.41056536 28.8984375 7.453125 C33.49113927 8.63321095 38.08350911 9.81446131 42.67337036 11.0055542 C52.12107518 13.45695607 61.58172406 15.85119355 71.0546875 18.203125 C71.0546875 19.193125 71.0546875 20.183125 71.0546875 21.203125 C68.89033907 21.85668527 66.72307313 22.5005868 64.5546875 23.140625 C63.348125 23.50027344 62.1415625 23.85992187 60.8984375 24.23046875 C56.91169025 25.23931028 53.13354681 25.72664007 49.0546875 26.203125 C49.17264179 31.02711414 49.29686768 35.85088458 49.42700195 40.67456055 C49.47041047 42.31676803 49.51208108 43.95902239 49.55200195 45.60131836 C49.6095619 47.95701245 49.67329642 50.31246928 49.73828125 52.66796875 C49.76334999 53.77578957 49.76334999 53.77578957 49.78892517 54.9059906 C49.59016763 58.34613127 49.59016763 58.34613127 51.0546875 61.203125 C51.09561687 63.53609933 51.09710473 65.87017725 51.0546875 68.203125 C49.0746875 68.203125 47.0946875 68.203125 45.0546875 68.203125 C45.3846875 55.003125 45.7146875 41.803125 46.0546875 28.203125 C37.6396875 30.183125 37.6396875 30.183125 29.0546875 32.203125 C28.7246875 38.143125 28.3946875 44.083125 28.0546875 50.203125 C22.52610729 51.30884104 22.52610729 51.30884104 18.4921875 49.953125 C-7.52860367 42.41439111 -36.77339574 43.02545212 -62.72265625 50.49609375 C-65.9453125 51.203125 -65.9453125 51.203125 -69.9453125 50.203125 C-69.9453125 45.913125 -69.9453125 41.623125 -69.9453125 37.203125 C-50.43731494 29.78887048 -30.71300493 27.53688121 -9.9453125 27.203125 C-14.08551584 27.15273398 -18.22554484 27.11695105 -22.3659668 27.09326172 C-23.76704018 27.08336014 -25.16809383 27.06983531 -26.5690918 27.05224609 C-39.64388844 26.89251089 -52.25782961 27.6406307 -64.7734375 31.8125 C-74.83779913 33.0519534 -86.3570132 28.48535349 -96.1328125 26.078125 C-97.67245364 25.7015268 -99.21216673 25.3252226 -100.75195312 24.94921875 C-104.48390984 24.03723675 -108.21487444 23.12129833 -111.9453125 22.203125 C-112.2753125 20.883125 -112.6053125 19.563125 -112.9453125 18.203125 C-103.96447526 15.92497734 -94.98356187 13.64713015 -86.00255585 11.36964798 C-81.83060648 10.31167889 -77.65868168 9.25361315 -73.48681641 8.1953125 C-69.447362 7.1706053 -65.40783865 6.14617028 -61.36827087 5.1219101 C-59.84079113 4.73455903 -58.31333466 4.34711615 -56.78590393 3.95957184 C-56.05898849 3.77514275 -55.33207306 3.59071365 -54.58312988 3.4006958 C-53.86744591 3.21900219 -53.15176193 3.03730858 -52.41439056 2.8501091 C-51.00204619 2.49254778 -49.58929542 2.13658749 -48.17612457 1.78230667 C-44.66634884 0.90147956 -41.16616165 -0.00336962 -37.67504883 -0.95568848 C-23.83530268 -4.68728455 -13.69359169 -3.59900022 0 0 Z " fill="#486BA0" transform="translate(266.9453125,38.796875)"/>
<path d="M0 0 C1.3999459 11.62455079 1.19651857 23.31341709 1 35 C0.98743164 35.74862305 0.97486328 36.49724609 0.96191406 37.26855469 C0.70276838 48.29546786 -1.24111922 58.86347783 -3.50341797 69.62939453 C-3.93636844 71.69623284 -4.34706768 73.76770739 -4.75390625 75.83984375 C-6.26675141 83.11014536 -8.69400209 89.36905863 -12 96 C-12.41894531 96.94359375 -12.83789062 97.8871875 -13.26953125 98.859375 C-26.73172611 128.18911365 -55.04828148 144.95629935 -82.13964844 159.95507812 C-83.42125337 160.67492971 -84.69499498 161.40890198 -85.96191406 162.15429688 C-90.80060962 165 -90.80060962 165 -93 165 C-93.04967973 159.30746716 -93.08585156 153.61506238 -93.10986328 147.92236328 C-93.11988036 145.98842163 -93.13349784 144.05449496 -93.15087891 142.12060547 C-93.17531686 139.33036586 -93.18652628 136.54032764 -93.1953125 133.75 C-93.21079636 132.466698 -93.21079636 132.466698 -93.22659302 131.1574707 C-93.22973587 114.09219882 -85.07401425 101.2874407 -73.625 89.3125 C-65.6290809 81.56093836 -43.83663406 64 -32 64 C-31.39782451 72.12936908 -33.10937941 78.26999775 -38.15234375 84.77734375 C-44.17150236 91.52061166 -50.76431585 97.65788783 -57.51660156 103.66088867 C-63.56490958 109.14897477 -67.12616656 114.10240199 -68.25 122.4375 C-68.39953125 123.48808594 -68.5490625 124.53867187 -68.703125 125.62109375 C-68.80109375 126.40613281 -68.8990625 127.19117188 -69 128 C-46.65852205 115.03678045 -26.6901005 96.94908929 -19.515625 71.13378906 C-16.89535143 60.29042211 -15.99486351 49.10133597 -15.7734375 37.9765625 C-15.75853271 37.29003098 -15.74362793 36.60349945 -15.72827148 35.89616394 C-15.66030858 32.50688671 -15.62736224 29.1250445 -15.64160156 25.73461914 C-15.55711879 17.7473908 -14.62341346 11.65805379 -10 5 C-6.75434916 1.90530966 -4.53410827 0 0 0 Z " fill="#065D9A" transform="translate(353,148)"/>
<path d="M0 0 C5.87102706 0.91548219 9.26548844 3.66738101 12.8125 8.4375 C15.029285 13.22108868 15.12717419 18.20338268 15.2109375 23.41015625 C15.95934201 58.69870315 20.30722458 87.35131692 46.91015625 113.1640625 C53.59823411 119.03957015 61.32769604 123.54353408 69 128 C67.52843259 113.00523552 60.11725157 105.04486163 49 95.5625 C41.7319496 89.25303105 36.39169969 83.06369464 33 74 C32.67 73.34 32.34 72.68 32 72 C31.86584528 69.3276379 31.95681459 66.67749512 32 64 C44.08592605 69.38597781 55.3448967 75.12302072 66 83 C66.54769043 83.39799805 67.09538086 83.79599609 67.65966797 84.20605469 C80.62604958 93.76352644 90.01345747 106.97983356 93 123 C93.25038883 126.32732704 93.2345503 129.63357518 93.1953125 132.96875 C93.1924826 133.88966431 93.18965271 134.81057861 93.18673706 135.75939941 C93.17562775 138.67307052 93.15054078 141.58642331 93.125 144.5 C93.11495823 146.4869747 93.10583448 148.47395426 93.09765625 150.4609375 C93.07571879 155.30741252 93.04125361 160.15365247 93 165 C88.85163747 163.73374595 85.28683991 162.1847681 81.55078125 159.98828125 C80.53693359 159.39466797 79.52308594 158.80105469 78.47851562 158.18945312 C77.43373047 157.57005859 76.38894531 156.95066406 75.3125 156.3125 C74.28705078 155.71244141 73.26160156 155.11238281 72.20507812 154.49414062 C42.3999047 136.96500831 15.97194792 116.01317005 6.546875 81.12890625 C6.36640625 80.42636719 6.1859375 79.72382813 6 79 C5.649375 77.824375 5.29875 76.64875 4.9375 75.4375 C0.10413249 57.71515246 -0.27606352 40.18910894 -0.125 21.9375 C-0.11494026 19.79883236 -0.10581976 17.66016009 -0.09765625 15.52148438 C-0.07590268 10.34753914 -0.04154141 5.17382263 0 0 Z " fill="#065D9A" transform="translate(149,148)"/>
<path d="M0 0 C5.28 0 10.56 0 16 0 C18.37247536 5.96231418 20.0800973 11.88675015 21.5625 18.125 C21.97820431 19.8573158 22.39612014 21.58910261 22.81640625 23.3203125 C22.99631104 24.07586426 23.17621582 24.83141602 23.36157227 25.60986328 C24.12046298 28.45098758 25.0485476 31.21813679 26 34 C26.02505615 33.14768799 26.0501123 32.29537598 26.07592773 31.41723633 C26.17135569 28.23955034 26.27057124 25.06201106 26.37231445 21.88452148 C26.4154884 20.51217224 26.45717501 19.13977533 26.49731445 17.76733398 C26.55544392 15.78877932 26.6194571 13.8104003 26.68359375 11.83203125 C26.72025146 10.64327393 26.75690918 9.4545166 26.79467773 8.22973633 C26.97546411 5.38595153 27.35809408 2.77093195 28 0 C29.81242052 -0.02687279 31.62495233 -0.04633715 33.4375 -0.0625 C34.44683594 -0.07410156 35.45617187 -0.08570313 36.49609375 -0.09765625 C39 0 39 0 40 1 C40.09496708 3.40348286 40.12558862 5.77810982 40.11352539 8.18188477 C40.11367142 8.93305573 40.11381744 9.68422668 40.1139679 10.4581604 C40.11326863 12.95260459 40.10547564 15.44697503 40.09765625 17.94140625 C40.09579212 19.66633564 40.09436819 21.39126557 40.09336853 23.11619568 C40.08954297 27.66512503 40.07971238 32.21402267 40.06866455 36.76293945 C40.05845124 41.40120006 40.05387108 46.03946577 40.04882812 50.67773438 C40.03809014 59.78517022 40.02101327 68.89258248 40 78 C33.07 77.505 33.07 77.505 26 77 C26 77.66 26 78.32 26 79 C29.96 79 33.92 79 38 79 C38 79.99 38 80.98 38 82 C35.69 82 33.38 82 31 82 C31 82.66 31 83.32 31 84 C26.71 84 22.42 84 18 84 C16.68 79.05 15.36 74.1 14 69 C13.67 71.97 13.34 74.94 13 78 C9.04 77.67 5.08 77.34 1 77 C1 77.66 1 78.32 1 79 C4.3 79 7.6 79 11 79 C11 79.99 11 80.98 11 82 C7.04 82 3.08 82 -1 82 C-1.02322472 72.48976802 -1.04096659 62.97954589 -1.05181217 53.46929169 C-1.05701889 49.05275975 -1.06407619 44.63624729 -1.07543945 40.21972656 C-1.08634715 35.95331126 -1.09229348 31.68691463 -1.09487724 27.42048645 C-1.09671733 25.79710089 -1.10031045 24.1737163 -1.10573006 22.55033875 C-1.11304525 20.26726108 -1.11398656 17.98425947 -1.11352539 15.70117188 C-1.115746 14.40433472 -1.11796661 13.10749756 -1.12025452 11.7713623 C-0.99281271 7.77459589 -0.55436576 3.9574264 0 0 Z " fill="#4A6CA1" transform="translate(396,398)"/>
<path d="M0 0 C3.83307169 -0.11719175 7.66567608 -0.18758077 11.5 -0.25 C12.57765625 -0.28351563 13.6553125 -0.31703125 14.765625 -0.3515625 C21.70019803 -0.43613046 26.11362824 0.25785183 32 4 C36.2010288 8.42213558 38.24819937 12.13332509 38.25878906 18.23999023 C38.26509338 19.28464951 38.27139771 20.32930878 38.27789307 21.40562439 C38.2738446 22.52860428 38.26979614 23.65158417 38.265625 24.80859375 C38.26849518 26.54690208 38.26849518 26.54690208 38.27142334 28.32032776 C38.27278406 30.77060157 38.26909553 33.22088262 38.26074219 35.67114258 C38.25005106 39.41959871 38.26063662 43.16757451 38.2734375 46.91601562 C38.2721157 49.29687606 38.26955287 51.67773619 38.265625 54.05859375 C38.26967346 55.17954941 38.27372192 56.30050507 38.27789307 57.45542908 C38.27158875 58.50324051 38.26528442 59.55105194 38.25878906 60.63061523 C38.25719788 61.54898666 38.25560669 62.46735809 38.25396729 63.41355896 C37.97223765 66.28273593 37.27172694 68.41877642 36 71 C34.125 72.125 34.125 72.125 32 73 C31.34 73.515625 30.68 74.03125 30 74.5625 C26.34412016 77.19016363 22.76375556 77.12108381 18.359375 77.09765625 C16.75449219 77.09282227 16.75449219 77.09282227 15.1171875 77.08789062 C14.00601563 77.07951172 12.89484375 77.07113281 11.75 77.0625 C10.06003906 77.05573242 10.06003906 77.05573242 8.3359375 77.04882812 C5.55723783 77.03705397 2.77864591 77.0206084 0 77 C0 77.66 0 78.32 0 79 C3.85499569 78.91857227 7.70847275 78.80577646 11.5625 78.6875 C12.64853516 78.66494141 13.73457031 78.64238281 14.85351562 78.61914062 C22.89148138 78.35039405 28.68038666 77.3084752 35 72 C33.64231796 76.88765533 31.32965579 78.52591098 27 81 C23.82212459 82.0592918 21.57411057 82.11458939 18.23828125 82.09765625 C17.12001953 82.09443359 16.00175781 82.09121094 14.84960938 82.08789062 C13.68236328 82.07951172 12.51511719 82.07113281 11.3125 82.0625 C10.13365234 82.05798828 8.95480469 82.05347656 7.74023438 82.04882812 C4.82677211 82.03703273 1.91341137 82.0205727 -1 82 C-1.02317862 72.04680532 -1.04094327 62.09361707 -1.05181217 52.14040089 C-1.0570289 47.51863972 -1.06410463 42.89689702 -1.07543945 38.27514648 C-1.08631127 33.81422939 -1.09228596 29.35333006 -1.09487724 24.89240074 C-1.09672374 23.19117643 -1.10032947 21.48995308 -1.10573006 19.78873634 C-1.11299745 17.40446502 -1.11398853 15.02026696 -1.11352539 12.63598633 C-1.11712067 11.93395584 -1.12071594 11.23192535 -1.12442017 10.50862122 C-1.11679817 6.87820457 -0.86036794 3.53072332 0 0 Z " fill="#486AA0" transform="translate(107,398)"/>
<path d="M0 0 C1.97909398 -0.02686553 3.95828971 -0.04633375 5.9375 -0.0625 C7.03964844 -0.07410156 8.14179688 -0.08570313 9.27734375 -0.09765625 C12 0 12 0 13 1 C13.0883967 3.3756852 13.11530305 5.72208674 13.09765625 8.09765625 C13.0962413 8.80651474 13.09482635 9.51537323 13.09336853 10.24571228 C13.08775443 12.51801712 13.07519963 14.79022475 13.0625 17.0625 C13.05748681 18.59960796 13.05292359 20.13671745 13.04882812 21.67382812 C13.03778042 25.44925642 13.02050641 29.22461171 13 33 C16.96 33 20.92 33 25 33 C24.98839844 31.03675781 24.97679687 29.07351563 24.96484375 27.05078125 C24.95546402 24.47135512 24.94636401 21.89192796 24.9375 19.3125 C24.92912109 18.01892578 24.92074219 16.72535156 24.91210938 15.39257812 C24.90888672 14.14541016 24.90566406 12.89824219 24.90234375 11.61328125 C24.89448853 9.89298706 24.89448853 9.89298706 24.88647461 8.13793945 C24.98924193 5.29736223 25.34683584 2.75956208 26 0 C27.97909398 -0.02686553 29.95828971 -0.04633375 31.9375 -0.0625 C33.03964844 -0.07410156 34.14179688 -0.08570313 35.27734375 -0.09765625 C38 0 38 0 39 1 C39.09496708 3.40348286 39.12558862 5.77810982 39.11352539 8.18188477 C39.11367142 8.93305573 39.11381744 9.68422668 39.1139679 10.4581604 C39.11326863 12.95260459 39.10547564 15.44697503 39.09765625 17.94140625 C39.09579212 19.66633564 39.09436819 21.39126557 39.09336853 23.11619568 C39.08954297 27.66512503 39.07971238 32.21402267 39.06866455 36.76293945 C39.05845124 41.40120006 39.05387108 46.03946577 39.04882812 50.67773438 C39.03809014 59.78517022 39.02101327 68.89258248 39 78 C34.71 77.67 30.42 77.34 26 77 C26 77.66 26 78.32 26 79 C29.63 79 33.26 79 37 79 C37 79.99 37 80.98 37 82 C34.69 82 32.38 82 30 82 C30 82.66 30 83.32 30 84 C26.04 84 22.08 84 18 84 C18 73.11 18 62.22 18 51 C16.35 51 14.7 51 13 51 C13 59.91 13 68.82 13 78 C8.71 77.67 4.42 77.34 0 77 C0 77.66 0 78.32 0 79 C3.63 79 7.26 79 11 79 C11 79.99 11 80.98 11 82 C7.04 82 3.08 82 -1 82 C-1.02317862 72.04680532 -1.04094327 62.09361707 -1.05181217 52.14040089 C-1.0570289 47.51863972 -1.06410463 42.89689702 -1.07543945 38.27514648 C-1.08631127 33.81422939 -1.09228596 29.35333006 -1.09487724 24.89240074 C-1.09672374 23.19117643 -1.10032947 21.48995308 -1.10573006 19.78873634 C-1.11299745 17.40446502 -1.11398853 15.02026696 -1.11352539 12.63598633 C-1.11712067 11.93395584 -1.12071594 11.23192535 -1.12442017 10.50862122 C-1.11679817 6.87820457 -0.86036794 3.53072332 0 0 Z " fill="#486BA0" transform="translate(261,398)"/>
<path d="M0 0 C0.78955078 -0.01224609 1.57910156 -0.02449219 2.39257812 -0.03710938 C4.45057435 -0.04237279 6.50812009 0.06543715 8.5625 0.1875 C11.00950326 2.63450326 11.04152388 3.86322799 11.58398438 7.24121094 C11.7575647 8.29701355 11.93114502 9.35281616 12.10998535 10.44061279 C12.29025269 11.58942932 12.47052002 12.73824585 12.65625 13.921875 C12.94453674 15.69899872 12.94453674 15.69899872 13.23864746 17.51202393 C13.85421149 21.31933431 14.4583259 25.12836737 15.0625 28.9375 C15.46933557 31.45975109 15.87687939 33.98188806 16.28515625 36.50390625 C17.39580606 43.39568564 18.50276903 50.28768069 19.5625 57.1875 C19.84710083 59.03535095 19.84710083 59.03535095 20.13745117 60.92053223 C20.32090088 62.14977417 20.50435059 63.37901611 20.69335938 64.64550781 C20.94345764 66.309758 20.94345764 66.309758 21.1986084 68.00762939 C21.5625 71.1875 21.5625 71.1875 21.5625 77.1875 C17.2725 77.1875 12.9825 77.1875 8.5625 77.1875 C8.5625 77.8475 8.5625 78.5075 8.5625 79.1875 C12.5225 79.1875 16.4825 79.1875 20.5625 79.1875 C20.5625 80.1775 20.5625 81.1675 20.5625 82.1875 C17.9225 82.1875 15.2825 82.1875 12.5625 82.1875 C12.5625 82.8475 12.5625 83.5075 12.5625 84.1875 C8.6025 84.1875 4.6425 84.1875 0.5625 84.1875 C-0.28971996 80.77862017 -0.54533755 78.38315369 -0.5 74.9375 C-0.49097656 74.04546875 -0.48195313 73.1534375 -0.47265625 72.234375 C-0.46105469 71.55890625 -0.44945312 70.8834375 -0.4375 70.1875 C-2.7475 70.1875 -5.0575 70.1875 -7.4375 70.1875 C-7.7675 72.8275 -8.0975 75.4675 -8.4375 78.1875 C-12.7275 77.8575 -17.0175 77.5275 -21.4375 77.1875 C-19.05145846 60.68827662 -16.64784714 44.19234579 -14.01425171 27.73049927 C-13.7966928 26.37022271 -13.58023884 25.00976897 -13.36489868 23.6491394 C-13.06452658 21.75510947 -12.75895694 19.86190599 -12.453125 17.96875 C-12.28071289 16.89689453 -12.10830078 15.82503906 -11.93066406 14.72070312 C-11.4375 12.1875 -11.4375 12.1875 -10.4375 10.1875 C-10.12958131 7.85672657 -9.92854726 5.52508104 -9.71875 3.18359375 C-9.03978088 -1.63520096 -3.85811924 0.00313413 0 0 Z " fill="#4A6DA1" transform="translate(333.4375,397.8125)"/>
<path d="M0 0 C4.62744682 3.47058511 7.74981777 7.36429108 9.5 12.875 C9.7550648 17.22640556 9.58815924 21.5111174 9.5 25.875 C5.21 25.545 0.92 25.215 -3.5 24.875 C-3.5 25.535 -3.5 26.195 -3.5 26.875 C0.13 26.875 3.76 26.875 7.5 26.875 C7.5 28.195 7.5 29.515 7.5 30.875 C1.47403427 31.9462828 -4.38909517 31.97445415 -10.5 31.875 C-10.57347656 30.73611328 -10.57347656 30.73611328 -10.6484375 29.57421875 C-10.72320312 28.58035156 -10.79796875 27.58648437 -10.875 26.5625 C-10.94460937 25.57636719 -11.01421875 24.59023438 -11.0859375 23.57421875 C-11.33865472 20.65971567 -11.33865472 20.65971567 -13.5 17.875 C-13.5 33.385 -13.5 48.895 -13.5 64.875 C-12.51 64.875 -11.52 64.875 -10.5 64.875 C-10.5 61.575 -10.5 58.275 -10.5 54.875 C-8.52 54.875 -6.54 54.875 -4.5 54.875 C-4.17 52.235 -3.84 49.595 -3.5 46.875 C-1.52090602 46.84813447 0.45828971 46.82866625 2.4375 46.8125 C3.53964844 46.80089844 4.64179688 46.78929687 5.77734375 46.77734375 C8.5 46.875 8.5 46.875 9.5 47.875 C9.62685806 50.51246756 9.68520617 53.11209166 9.6875 55.75 C9.69974609 56.48347656 9.71199219 57.21695313 9.72460938 57.97265625 C9.73509566 61.81063514 9.67768617 63.60847074 7.5 66.875 C6.96375 67.844375 6.4275 68.81375 5.875 69.8125 C2.27821948 74.45045383 -1.3993618 76.43841589 -7.21875 77.2578125 C-13.5278811 77.51780417 -17.36487389 76.52664523 -22.5 72.875 C-19.49811893 76.08390735 -17.60676754 77.66432325 -13.1171875 78.11328125 C-6.29772671 78.29785355 -1.46960541 77.17670768 4.5 73.875 C2.79844492 77.66056979 1.25114747 78.99942627 -2.5 80.875 C-7.81385434 82.46470956 -13.49756611 82.9253395 -18.7890625 81.07421875 C-24.42804583 78.00128963 -26.67696891 73.89977018 -28.5 67.875 C-29.02805067 63.89644566 -29.03859716 59.98167505 -28.99609375 55.97265625 C-28.99754898 54.85491318 -28.99900421 53.7371701 -29.00050354 52.58555603 C-28.99885131 50.23319886 -28.98736639 47.88083012 -28.96655273 45.52856445 C-28.93761337 41.95151249 -28.94595701 38.37594686 -28.95898438 34.79882812 C-28.9527453 32.50259705 -28.94435304 30.2063706 -28.93359375 27.91015625 C-28.93652939 26.85256607 -28.93946503 25.79497589 -28.94248962 24.70533752 C-28.84204078 16.6968248 -28.28602794 8.35596718 -22.5 2.3125 C-16.34337406 -2.68975857 -7.34890333 -2.3621475 0 0 Z " fill="#486AA0" transform="translate(237.5,399.125)"/>
<path d="M0 0 C1.97909398 -0.02686553 3.95828971 -0.04633375 5.9375 -0.0625 C7.03964844 -0.07410156 8.14179688 -0.08570313 9.27734375 -0.09765625 C12 0 12 0 13 1 C13.11837901 2.95243098 13.16739642 4.90909815 13.18945312 6.86499023 C13.21452942 8.74715492 13.21452942 8.74715492 13.2401123 10.66734314 C13.24679428 11.34206099 13.25347626 12.01677883 13.26036072 12.71194267 C13.28133539 14.81716422 13.30836267 16.92222918 13.33703613 19.02735901 C13.39682318 23.49734623 13.4489262 27.96740585 13.5 32.4375 C13.55917634 37.61231142 13.62145921 42.78704594 13.69187927 47.96171761 C13.71849922 50.03902362 13.739288 52.11633713 13.7598877 54.19371033 C13.78496399 56.08060326 13.78496399 56.08060326 13.81054688 58.00561523 C13.82307495 59.11734604 13.83560303 60.22907684 13.84851074 61.37449646 C13.82544853 63.98002126 13.82544853 63.98002126 15 66 C17.64 66 20.28 66 23 66 C24.01795685 62.61150805 24.15427135 59.47609491 24.20532227 55.94628906 C24.22526749 54.72532532 24.24521271 53.50436157 24.26576233 52.24639893 C24.28247482 50.93274353 24.29918732 49.61908813 24.31640625 48.265625 C24.33698919 46.90370064 24.35798601 45.54178248 24.37937927 44.17987061 C24.43446165 40.60265128 24.48393164 37.02537562 24.53222656 33.44805908 C24.58254289 29.79474906 24.63817597 26.14152042 24.69335938 22.48828125 C24.80077162 15.32558983 24.90225385 8.16283054 25 1 C26.81242052 0.97312721 28.62495233 0.95366285 30.4375 0.9375 C31.44683594 0.92589844 32.45617187 0.91429687 33.49609375 0.90234375 C36 1 36 1 37 2 C37.09396057 3.93306498 37.11743517 5.86958838 37.11352539 7.80493164 C37.11344986 9.04614273 37.11337433 10.28735382 37.11329651 11.56617737 C37.10818911 12.9308374 37.1029731 14.29549702 37.09765625 15.66015625 C37.095792 17.04878183 37.09436813 18.43740807 37.09336853 19.82603455 C37.08954387 23.48721115 37.07971403 27.1483483 37.06866455 30.80950928 C37.05844932 34.54292263 37.05387067 38.27634234 37.04882812 42.00976562 C37.03809171 49.33986177 37.02101591 56.66992536 37 64 C36.34 64 35.68 64 35 64 C34.9175 64.886875 34.835 65.77375 34.75 66.6875 C33.86939213 70.57685141 32.84946182 72.22552402 30 75 C24.22865902 78.4156916 18.62248957 78.85829025 12 78 C7.57936506 76.63228974 4.87824292 74.2141016 2.5625 70.25 C2.046875 69.1775 1.53125 68.105 1 67 C0.34 67 -0.32 67 -1 67 C-1.02319531 59.00256118 -1.04095173 51.00513648 -1.05181217 43.00767231 C-1.05702527 39.29392112 -1.06409433 35.580193 -1.07543945 31.86645508 C-1.08632426 28.28085797 -1.09228869 24.695283 -1.09487724 21.10967064 C-1.09672141 19.74337605 -1.1003226 18.37708264 -1.10573006 17.0107975 C-1.11301462 15.09355481 -1.11340869 13.17628973 -1.11352539 11.2590332 C-1.115746 10.16871292 -1.11796661 9.07839264 -1.12025452 7.95503235 C-1.00771337 5.18954176 -0.628804 2.69023309 0 0 Z " fill="#4A6CA1" transform="translate(159,398)"/>
<path d="M0 0 C4.68139254 -0.02465288 9.36274759 -0.04283739 14.04418945 -0.05493164 C15.63794614 -0.05997157 17.23169819 -0.0668035 18.82543945 -0.07543945 C21.11150253 -0.08751999 23.39750467 -0.09323155 25.68359375 -0.09765625 C26.40026718 -0.10281754 27.11694061 -0.10797882 27.85533142 -0.11329651 C29.57063672 -0.11349263 31.28581266 -0.06192007 33 0 C34 1 34 1 34.09765625 3.50390625 C34.08605469 4.51324219 34.07445312 5.52257812 34.0625 6.5625 C34.05347656 7.57441406 34.04445312 8.58632813 34.03515625 9.62890625 C34.02355469 10.41136719 34.01195312 11.19382812 34 12 C33.34 12.33 32.68 12.66 32 13 C32 14.32 32 15.64 32 17 C25.6368234 18.1569412 19.46395007 18.07262865 13 18 C13 22.95 13 27.9 13 33 C14.14339844 32.98839844 15.28679687 32.97679687 16.46484375 32.96484375 C17.95572754 32.95546712 19.44661309 32.94636679 20.9375 32.9375 C21.69224609 32.92912109 22.44699219 32.92074219 23.22460938 32.91210938 C25.14994313 32.90347559 27.07535581 32.94775667 29 33 C30 34 30 34 30.09765625 36.50390625 C30.06510417 39.3359375 30.03255208 42.16796875 30 45 C24.06 44.67 18.12 44.34 12 44 C12 44.66 12 45.32 12 46 C17.28 46 22.56 46 28 46 C28 46.99 28 47.98 28 49 C23.05 49 18.1 49 13 49 C13 54.61 13 60.22 13 66 C14.43214844 65.98839844 15.86429688 65.97679687 17.33984375 65.96484375 C19.20572787 65.95546745 21.07161339 65.94636708 22.9375 65.9375 C23.88302734 65.92912109 24.82855469 65.92074219 25.80273438 65.91210938 C27.15141602 65.90727539 27.15141602 65.90727539 28.52734375 65.90234375 C29.35999756 65.89710693 30.19265137 65.89187012 31.05053711 65.88647461 C33 66 33 66 34 67 C34 70.63 34 74.26 34 78 C22.78 77.67 11.56 77.34 0 77 C0 77.66 0 78.32 0 79 C10.56 79 21.12 79 32 79 C32 79.99 32 80.98 32 82 C21.11 82 10.22 82 -1 82 C-1.02259957 72.04680123 -1.04094327 62.09361952 -1.05181217 52.14040089 C-1.0570289 47.51863972 -1.06410463 42.89689702 -1.07543945 38.27514648 C-1.08631127 33.81422939 -1.09228596 29.35333006 -1.09487724 24.89240074 C-1.09672374 23.19117643 -1.10032947 21.48995308 -1.10573006 19.78873634 C-1.11299745 17.40446502 -1.11398853 15.02026696 -1.11352539 12.63598633 C-1.11712067 11.93395584 -1.12071594 11.23192535 -1.12442017 10.50862122 C-1.11679817 6.87820457 -0.86036794 3.53072332 0 0 Z " fill="#486BA0" transform="translate(59,398)"/>
<path d="M0 0 C1.97909398 -0.02686553 3.95828971 -0.04633375 5.9375 -0.0625 C7.03964844 -0.07410156 8.14179688 -0.08570313 9.27734375 -0.09765625 C12 0 12 0 13 1 C13.09496708 3.40348286 13.12558862 5.77810982 13.11352539 8.18188477 C13.11367142 8.93305573 13.11381744 9.68422668 13.1139679 10.4581604 C13.11326863 12.95260459 13.10547564 15.44697503 13.09765625 17.94140625 C13.09579212 19.66633564 13.09436819 21.39126557 13.09336853 23.11619568 C13.08954297 27.66512503 13.07971238 32.21402267 13.06866455 36.76293945 C13.05845124 41.40120006 13.05387108 46.03946577 13.04882812 50.67773438 C13.03809014 59.78517022 13.02101327 68.89258248 13 78 C8.71 77.67 4.42 77.34 0 77 C0 77.66 0 78.32 0 79 C3.63 79 7.26 79 11 79 C11 79.99 11 80.98 11 82 C7.04 82 3.08 82 -1 82 C-1.02317862 72.04680532 -1.04094327 62.09361707 -1.05181217 52.14040089 C-1.0570289 47.51863972 -1.06410463 42.89689702 -1.07543945 38.27514648 C-1.08631127 33.81422939 -1.09228596 29.35333006 -1.09487724 24.89240074 C-1.09672374 23.19117643 -1.10032947 21.48995308 -1.10573006 19.78873634 C-1.11299745 17.40446502 -1.11398853 15.02026696 -1.11352539 12.63598633 C-1.11712067 11.93395584 -1.12071594 11.23192535 -1.12442017 10.50862122 C-1.11679817 6.87820457 -0.86036794 3.53072332 0 0 Z " fill="#496BA0" transform="translate(368,398)"/>
<path d="M0 0 C0.02494208 4.39249301 0.04297329 8.78494717 0.05493164 13.17749023 C0.05992328 14.66805745 0.06671894 16.15861986 0.07543945 17.64916992 C0.12015168 25.49484991 0.1148321 33.21373172 -1 41 C-6.37621431 39.29298596 -11.58200786 37.2265719 -16.8125 35.125 C-17.66392578 34.78597656 -18.51535156 34.44695312 -19.39257812 34.09765625 C-23.48633459 32.45765937 -27.53958283 30.77071568 -31.55078125 28.9375 C-36.06266505 26.9126885 -40.65553498 25.34134479 -45.375 23.875 C-46.19846924 23.61638184 -47.02193848 23.35776367 -47.87036133 23.09130859 C-53.84488592 21.25651501 -59.79273337 19.809037 -66 19 C-66 18.67 -66 18.34 -66 18 C-69.63 17.67 -73.26 17.34 -77 17 C-77 16.67 -77 16.34 -77 16 C-58.84478958 15.32787203 -40.3350945 16.07027584 -23 22 C-21.68 22 -20.36 22 -19 22 C-18.67 16.06 -18.34 10.12 -18 4 C-5.98643868 -0.06341045 -5.98643868 -0.06341045 0 0 Z " fill="#FAFBFC" transform="translate(313,67)"/>
<path d="M0 0 C13.67247368 3.04154605 26.62942421 8.82383346 38 17 C38.68835938 17.49242187 39.37671875 17.98484375 40.0859375 18.4921875 C44.36243329 21.83038042 47.4668829 25.7130006 49 31 C48 34 48 34 46.2890625 35.16015625 C40.88478434 37.14295455 34.70835109 36.86915565 29.2734375 35.125 C15.28509027 28.54224836 6.38649282 15.7164448 0 2 C0 1.34 0 0.68 0 0 Z " fill="#FFDC5F" transform="translate(52,268)"/>
<path d="M0 0 C-5.32229284 14.11564622 -15.62908793 28.61123737 -29.58203125 35.27734375 C-35.07177351 36.91805832 -42.06938226 37.25461086 -47.390625 34.9765625 C-47.92171875 34.65429688 -48.4528125 34.33203125 -49 34 C-49.30816148 29.03517616 -48.12913252 26.95703815 -45.07421875 23.17578125 C-35.49903065 13.13175154 -14.56680538 0 0 0 Z " fill="#FFDC5F" transform="translate(445,271)"/>
<path d="M0 0 C0 0.66 0 1.32 0 2 C-14.71588774 8.39711271 -32.01172018 15.29753749 -47.9921875 9.046875 C-52.51310474 6.68966523 -56.32301999 4.07607202 -57.9375 -0.875 C-57.958125 -1.57625 -57.97875 -2.2775 -58 -3 C-40.66226155 -15.68615009 -18.27293066 -6.32066456 0 0 Z " fill="#FFDC5F" transform="translate(367,359)"/>
<path d="M0 0 C1.45702971 0.00502424 2.9140611 0.00958551 4.37109375 0.01367188 C7.9140977 0.02460612 11.45703797 0.04182 15 0.0625 C15 0.7225 15 1.3825 15 2.0625 C13.12136464 3.74721171 11.25315746 5.28761186 9.25 6.8125 C8.66379883 7.25988525 8.07759766 7.70727051 7.47363281 8.16821289 C1.99429586 12.24238404 -3.72021336 15.37116287 -10 18.0625 C-11.13501953 18.57103516 -11.13501953 18.57103516 -12.29296875 19.08984375 C-19.21052921 21.82410718 -27.4141848 22.56523637 -34.5390625 20.23046875 C-37.40680235 18.83831141 -39.74352891 17.31897109 -42 15.0625 C-42.07725633 12.28127212 -41.48902619 10.65589153 -39.71875 8.5078125 C-29.20160999 -1.46362685 -13.48337327 -0.08107769 0 0 Z " fill="#FFDC60" transform="translate(400,321.9375)"/>
<path d="M0 0 C4.62236116 -0.07508834 9.24435447 -0.12903662 13.8671875 -0.16479492 C15.43430783 -0.17972752 17.00138754 -0.20008115 18.56835938 -0.22631836 C32.13788777 -0.44756067 45.08036459 0.01499609 55.71484375 9.53515625 C57 11 57 11 57 12.9375 C55.03475245 16.99082307 51.0562508 19.30746369 47 21 C33.44731236 22.77943685 20.94591118 17.64877104 10 10 C6.50603952 7.15800061 3.13727846 4.2344508 0 1 C0 0.67 0 0.34 0 0 Z " fill="#FFDC60" transform="translate(82,319)"/>
<path d="M0 0 C0.66 0.99 1.32 1.98 2 3 C-2.63449248 10.19145385 -5.6810122 13.0238922 -14 15 C-17.11997823 15.38235994 -20.17211679 15.43116473 -23.3125 15.375 C-24.14209229 15.36484863 -24.97168457 15.35469727 -25.82641602 15.34423828 C-37.57013108 15.04947435 -46.74023142 11.62104343 -57 6 C-54.89520749 3.89520749 -53.83710842 3.45270291 -51.0703125 2.5625 C-49.88634888 2.18085693 -49.88634888 2.18085693 -48.6784668 1.79150391 C-47.83582275 1.53030762 -46.99317871 1.26911133 -46.125 1 C-45.26237549 0.7323584 -44.39975098 0.4647168 -43.51098633 0.18896484 C-29.89631597 -3.93684729 -12.94659787 -7.99800158 0 0 Z " fill="#FFDC5E" transform="translate(186,351)"/>
<path d="M0 0 C0.66 0 1.32 0 2 0 C3.61783449 6.8973276 4.33863807 13.42180993 4.3125 20.5 C4.32861328 21.37269531 4.34472656 22.24539062 4.36132812 23.14453125 C4.36871594 33.11808303 1.81990644 42.4935258 -5 50 C-8.18806524 52.33422889 -11.12936447 54.24986828 -15.1640625 53.7109375 C-17 53 -17 53 -18.25 51 C-22.32513604 34.69945583 -12.00186046 19.4122093 -4 6 C-2.73721193 3.90612363 -1.45963407 1.96858542 0 0 Z " fill="#FFDC5F" transform="translate(452,111)"/>
<path d="M0 0 C0.87332581 14.6039483 -2.75483228 27.73297693 -10.9375 39.875 C-15.48227972 44.55750032 -20.72889326 47.87656201 -27.3125 48.125 C-28.199375 48.08375 -29.08625 48.0425 -30 48 C-32.18265488 41.45203535 -31.50174126 36.34971793 -28.6875 30.1875 C-24.86205067 23.11131674 -19.61891431 17.64093487 -14 12 C-12.97071095 10.94594022 -11.94206635 9.89125075 -10.9140625 8.8359375 C-2.23793729 0 -2.23793729 0 0 0 Z " fill="#FFDC5F" transform="translate(463,166)"/>
<path d="M0 0 C31.8524149 15.97081868 31.8524149 15.97081868 39 30.625 C40.08073761 34.27248942 40.30272258 37.21596774 40 41 C38.38746547 42.61253453 36.66400957 42.24791423 34.4375 42.3125 C27.28178473 42.23083706 21.8246283 39.33961435 16.5 34.59375 C8.5654911 26.16333429 0 11.94176166 0 0 Z " fill="#FFDC5F" transform="translate(37,216)"/>
<path d="M0 0 C5.0331712 2.23463868 8.40625194 6.02294024 12.25 9.875 C13.01127197 10.6378833 13.77254395 11.4007666 14.55688477 12.18676758 C22.38950276 20.19084754 30.4438048 28.93516959 31.25 40.625 C31.01293921 43.82532073 30.49979108 45.27418923 29 48 C20.5351324 46.99392967 14.81527544 44.66311443 9.34765625 37.98046875 C1.91554942 26.87958654 -1.03116705 13.17602338 0 0 Z " fill="#FFDC5F" transform="translate(34,163)"/>
<path d="M0 0 C-2.13500975 15.19490978 -9.76349133 28.77172729 -22 38 C-27.40191526 41.75785409 -32.65552015 41.30480597 -39 41 C-39.76985716 34.17108185 -39.01399138 29.90841616 -34.99609375 24.30078125 C-29.73857672 18.24074694 -24.31524807 13.54917031 -17.5 9.3125 C-16.41912109 8.62317383 -16.41912109 8.62317383 -15.31640625 7.91992188 C-2.82078058 0 -2.82078058 0 0 0 Z " fill="#FFDC5E" transform="translate(459,220)"/>
<path d="M0 0 C1.18309727 9.03168003 2.20075069 18.00669615 2.25 27.125 C2.25902344 27.79781006 2.26804687 28.47062012 2.27734375 29.16381836 C2.23090356 36.96673754 0.28439307 44.43543842 -4 51 C-6.75 53.5 -6.75 53.5 -9 55 C-13.31457662 53.19304056 -14.90046418 50.89630545 -17.0078125 46.8125 C-20.15708251 37.8854354 -18.33062499 28.79012533 -14.69921875 20.3203125 C-4.3 0 -4.3 0 0 0 Z " fill="#FFDC5F" transform="translate(100,17)"/>
<path d="M0 0 C4.27173221 3.68739149 6.73581312 8.28955591 9.5 13.125 C9.97308594 13.929375 10.44617187 14.73375 10.93359375 15.5625 C15.91100403 24.19368791 20.12384675 32.84209448 20.1875 42.9375 C20.20167969 43.95714844 20.21585938 44.97679687 20.23046875 46.02734375 C19.99444914 49.07159667 19.28252995 51.24737643 18 54 C12.67606451 53.78269651 9.56833196 52.66025398 5.640625 49.015625 C-1.52840571 40.2079587 -2.18131376 30.50724076 -2.1875 19.6875 C-2.19974609 18.57181641 -2.21199219 17.45613281 -2.22460938 16.30664062 C-2.23497833 10.47583267 -2.00604281 5.49481292 0 0 Z " fill="#FFDC5E" transform="translate(43,108)"/>
<path d="M0 0 C2.66883589 2.66883589 3.36331103 5.66285612 4.4375 9.1875 C4.65559326 9.90075439 4.87368652 10.61400879 5.09838867 11.34887695 C13.76987046 40.45821624 13.76987046 40.45821624 7.265625 52.51171875 C5.72365554 54.32496061 4.1715255 55.07390824 2 56 C0.71560633 54.99628143 -0.55191042 53.97095632 -1.8125 52.9375 C-2.52019531 52.36902344 -3.22789063 51.80054688 -3.95703125 51.21484375 C-8.91856821 45.83589259 -9.55473366 40.0770502 -9.5 33.0625 C-9.49645508 32.23782227 -9.49291016 31.41314453 -9.48925781 30.56347656 C-9.19340519 19.3939681 -5.7293716 9.54895267 0 0 Z " fill="#FFDC5F" transform="translate(66,59)"/>
<path d="M0 0 C0.66 0 1.32 0 2 0 C8.64145133 13.32588939 14.2234683 27.67803245 10.2734375 42.77734375 C8.0443476 48.22320972 4.88091297 52.36488723 -0.3125 55.3125 C-0.869375 55.539375 -1.42625 55.76625 -2 56 C-8.70130507 48.26772491 -8.57245695 41.41665654 -8.18798828 31.47070312 C-7.37037626 20.72494509 -3.64399293 10.05974643 0 0 Z " fill="#FFDC60" transform="translate(429,62)"/>
<path d="M0 0 C4.49012472 3.14943377 6.92938567 6.53575565 9.625 11.1875 C10.01743896 11.86240479 10.40987793 12.53730957 10.81420898 13.23266602 C15.27285791 21.05714854 17.21723356 27.07313682 17.375 36.1875 C17.38926025 36.86546631 17.40352051 37.54343262 17.41821289 38.24194336 C17.37202856 42.88603436 16.43500234 46.06119574 14 50 C11.3125 52.375 11.3125 52.375 9 54 C2.38254347 49.29142516 -0.09189999 44.87150587 -2 37 C-2.49025552 32.08814922 -2.47125105 27.24409982 -2.375 22.3125 C-2.37371094 21.04599609 -2.37242187 19.77949219 -2.37109375 18.47460938 C-2.31007088 11.98923433 -1.94892444 6.19757971 0 0 Z " fill="#FFDC5E" transform="translate(397,21)"/>
<path d="M0 0 C2.31 0 4.62 0 7 0 C7.00808685 0.69268982 7.01617371 1.38537964 7.02450562 2.09906006 C7.11049065 9.30157998 7.20999192 16.50382277 7.31738281 23.70605469 C7.35678011 26.3948189 7.39136788 29.0835815 7.421875 31.77246094 C7.46748377 35.63495331 7.52548615 39.49708997 7.5859375 43.359375 C7.59748871 44.5636615 7.60903992 45.767948 7.62094116 47.00872803 C7.6507457 48.69001801 7.6507457 48.69001801 7.68115234 50.40527344 C7.69447601 51.39122498 7.70779968 52.37717651 7.7215271 53.39300537 C8.00980905 56.09182991 8.70369471 57.64961917 10 60 C10.268125 61.155 10.53625 62.31 10.8125 63.5 C12.17803721 67.52474126 13.46036188 68.75535144 17 71 C22.95586054 72.98528685 29.72890754 72.876562 35.5625 70.625 C36.366875 70.08875 37.17125 69.5525 38 69 C38.99 68.34 39.98 67.68 41 67 C39.47887873 70.87194504 37.4821972 72.75108097 34 75 C26.57140241 78.20315676 17.68897874 79.80780832 9.82421875 77.30859375 C5.14611717 74.91444754 2.05619078 71.18372701 0.40553284 66.20806885 C-0.12256616 63.33264464 -0.1192818 60.5951519 -0.11352539 57.67089844 C-0.11344986 56.38987244 -0.11337433 55.10884644 -0.11329651 53.78900146 C-0.10819026 52.39579225 -0.10297427 51.00258343 -0.09765625 49.609375 C-0.09579032 48.18019663 -0.09436724 46.75101762 -0.09336853 45.32183838 C-0.08955715 41.56699852 -0.07973867 37.81219757 -0.06866455 34.05737305 C-0.05842075 30.22314988 -0.05386455 26.38892041 -0.04882812 22.5546875 C-0.03811514 15.03644063 -0.02105531 7.51822577 0 0 Z " fill="#B2C0D7" transform="translate(151,405)"/>
<path d="M0 0 C5.08484376 8.99149201 4.43397762 24.79032237 2.1875 34.5625 C-0.12947411 41.26953032 -2.87316286 45.21495201 -8 50 C-10.68926076 49.4023865 -12.47723318 48.65304098 -14.22265625 46.47265625 C-17.9259236 39.98198337 -18.05437122 33.41089025 -16.33984375 26.23828125 C-13.03380089 16.20565768 -7.05918024 7.74788075 0 0 Z " fill="#FFDC5F" transform="translate(101,202)"/>
<path d="M0 0 C-0.26000472 13.11841995 -4.17329055 25.08607581 -13 35 C-17.37858777 39.1089932 -21.00971083 40.27410071 -27 40.3125 C-28.66803371 40.23317774 -30.33576552 40.13766646 -32 40 C-32.47276979 31.17496391 -30.65165367 25.59212168 -24.8125 18.9375 C-6.83056193 0 -6.83056193 0 0 0 Z " fill="#FFDC5F" transform="translate(333,306)"/>
<path d="M0 0 C10.37991755 9.43628868 16.74984319 21.05594325 18 35 C17.82277539 40.49396285 16.47441569 43.73143215 13 48 C10.75 49.375 10.75 49.375 9 50 C2.83955836 46.12772239 0.2308802 39.69264059 -2 33 C-2.232333 29.50446214 -2.18980389 26.00248158 -2.1875 22.5 C-2.18814453 21.5085498 -2.18878906 20.51709961 -2.18945312 19.49560547 C-2.14128931 12.83257919 -1.73275688 6.4668962 0 0 Z " fill="#FFDC5F" transform="translate(395,205)"/>
<path d="M0 0 C12.98363138 5.60078217 24.74175042 15.04799492 30.4375 28.1875 C31.7982427 31.89914285 32.41991888 35.01077068 32 39 C26.33843812 40.20570299 22.06936843 40.45920183 16.9765625 37.4765625 C7.00257635 30.02564004 2.23542013 18.9899807 0 7 C-0.13103675 4.63682001 -0.09872791 2.36946977 0 0 Z " fill="#FFDC5F" transform="translate(164,304)"/>
<path d="M0 0 C0.64210429 13.19881032 -1.35594652 28.28312242 -9.875 38.9375 C-12.57383705 41.82764702 -15.23158784 43.66012012 -19 45 C-22 44 -22 44 -23.6875 41.5625 C-25.8339495 35.73642277 -26.02728309 30.94954765 -23.96875 25.0390625 C-20.43354125 17.39908358 -10.09374225 0 0 0 Z " fill="#FFDC5F" transform="translate(99,162)"/>
<path d="M0 0 C9.89564104 4.71845136 19.17256991 12.93358857 23.5 23.125 C25.42887812 28.80496829 27.02940542 34.07997894 24.6875 39.875 C23 43 23 43 21 45 C16.54720348 44.7593083 14.10817313 43.10817313 11 40 C2.05059973 28.36114266 0.4028815 14.20157275 0 0 Z " fill="#FFDC5F" transform="translate(397,165)"/>
<path d="M0 0 C0.66 0 1.32 0 2 0 C12.4915194 11.23938738 22.54325442 23.44103722 22.3359375 39.30078125 C22.00227645 41.98170899 21.36908101 43.69446758 20 46 C13.24971006 44.69612106 8.7013052 42.88634916 4.47265625 37.328125 C-2.00107612 27.09378948 -1.98633577 15.78841309 -1 4 C-0.69644992 2.65957237 -0.37180616 1.32312096 0 0 Z " fill="#FFDC5F" transform="translate(130,277)"/>
<path d="M0 0 C0.66 0.33 1.32 0.66 2 1 C4.2608127 13.20838856 3.92123799 26.21894967 -2.8125 37 C-5.44455201 40.57207059 -7.91966799 43.08474212 -12 45 C-15.875 45.25 -15.875 45.25 -19 45 C-21.36988759 40.26022481 -20.54641928 34.12268077 -20 29 C-17.33056258 21.00122146 -12.44171404 14.3447571 -7 8 C-6.34 7.23042969 -5.68 6.46085937 -5 5.66796875 C-3.34738881 3.76546676 -1.68211755 1.87640468 0 0 Z " fill="#FFDC5E" transform="translate(365,280)"/>
<path d="M0 0 C-3.57114825 8.83604109 -13.69072038 15.07661653 -22 19 C-23.6396875 19.8971875 -23.6396875 19.8971875 -25.3125 20.8125 C-31.28955076 22.73731296 -38.00084092 22.99971969 -44 21 C-44.50164707 16.98682347 -44.80519194 14.36907254 -42.72265625 10.828125 C-32.50226345 -1.50123775 -14.98134781 -3.63624947 0 0 Z " fill="#FFDC60" transform="translate(149,55)"/>
<path d="M0 0 C12.24472548 2.96999724 24.19129292 9.40859504 31 20.375 C33.27806266 24.86209312 33.90134382 29.03786508 33 34 C31.97265625 36.26171875 31.97265625 36.26171875 31 38 C23.51242354 37.68137973 18.30351626 34.3438851 13.08203125 29.05859375 C6.11965531 20.71296431 1.8077511 10.66573152 0 0 Z " fill="#FFDC5F" transform="translate(390,126)"/>
<path d="M0 0 C9 0 9 0 11.5625 2 C12.036875 2.66 12.51125 3.32 13 4 C12.67 4.99 12.34 5.98 12 7 C11.67 5.68 11.34 4.36 11 3 C7.7 3 4.4 3 1 3 C1 3.66 1 4.32 1 5 C2.60875 4.9071875 2.60875 4.9071875 4.25 4.8125 C8.23245519 5.01162276 9.24290844 5.28931206 12 8 C12.49447632 10.05567932 12.49447632 10.05567932 12.48583984 12.43969727 C12.4919931 13.33394913 12.49814636 14.22820099 12.50448608 15.14955139 C12.49011505 16.11211349 12.47574402 17.0746756 12.4609375 18.06640625 C12.46002106 19.05624008 12.45910461 20.04607391 12.4581604 21.06590271 C12.45211809 23.15816036 12.4363533 25.2504091 12.41162109 27.3425293 C12.37510185 30.55354499 12.37060172 33.76340769 12.37109375 36.97460938 C12.3612634 39.00521835 12.34960675 41.03581948 12.3359375 43.06640625 C12.33371185 44.03099258 12.33148621 44.99557892 12.32919312 45.98939514 C12.31643341 46.88049484 12.30367371 47.77159454 12.29052734 48.68969727 C12.28290375 49.47562759 12.27528015 50.26155792 12.26742554 51.07130432 C12 53 12 53 10 55 C6.7 55 3.4 55 0 55 C0 36.85 0 18.7 0 0 Z " fill="#B0BFD6" transform="translate(119,409)"/>
<path d="M0 0 C11.32127876 -0.3778604 23.03876864 2.92798346 32 10 C38.91702153 16.78945351 38.91702153 16.78945351 39.09765625 21.6015625 C39.08605469 22.59929687 39.07445312 23.59703125 39.0625 24.625 C39.05347656 25.62789062 39.04445313 26.63078125 39.03515625 27.6640625 C39.02355469 28.43492188 39.01195312 29.20578125 39 30 C29.57562907 30.94243709 22.59019955 27.73574682 15.29296875 21.796875 C9.16345723 15.95924498 4.17275519 9.36642815 0 2 C0 1.34 0 0.68 0 0 Z " fill="#FFDC5F" transform="translate(373,90)"/>
<path d="M0 0 C-2.80093149 12.13736979 -8.55296437 26.56577989 -19 34 C-22.96215851 36.24565335 -26.40305645 38 -31 38 C-33.50433512 34.24349733 -33.50788774 30.3498127 -33 26 C-29.93049206 15.88867973 -21.87910623 9.20363051 -13 4 C-4.66961652 0 -4.66961652 0 0 0 Z " fill="#FFDC5F" transform="translate(107,123)"/>
<path d="M0 0 C3.01482294 2.51522371 3.93378702 5.05442587 5.125 8.75 C5.45757812 9.75546875 5.79015625 10.7609375 6.1328125 11.796875 C9.08480252 22.7006219 9.6012106 34.67352419 5.36328125 45.2421875 C4 47 4 47 1.5859375 47.921875 C-1.55957594 48.01690562 -2.39480071 47.46676609 -4.6875 45.375 C-5.55955078 44.61316406 -5.55955078 44.61316406 -6.44921875 43.8359375 C-10.7000375 38.80348205 -10.47525124 33.13497717 -10.3828125 26.8359375 C-9.41501868 17.13824843 -5.09931931 8.20230936 0 0 Z " fill="#FFDC60" transform="translate(112,244)"/>
<path d="M0 0 C0.66 0 1.32 0 2 0 C15.16301002 25.02775056 15.16301002 25.02775056 11.30859375 38.3984375 C9.24346173 43.04714472 6.67796259 45.75847626 2 48 C-0.5036257 47.76588233 -1.61069274 47.45178868 -3.265625 45.53125 C-8.73750635 34.24006626 -6.85231259 19.49161762 -2.9765625 7.953125 C-2.02194485 5.28561186 -1.03311089 2.63794333 0 0 Z " fill="#FFDC5F" transform="translate(383,247)"/>
<path d="M0 0 C-6.25133946 11.75251818 -15.87537635 24.84386918 -29 29 C-32.35430004 29.27371885 -35.64863986 29.33385197 -39 29 C-40 28 -40 28 -40.01953125 25.92578125 C-39.5674627 20.21948204 -38.98177822 16.37024439 -35 12 C-24.29823464 3.34909559 -13.65454071 -0.43347748 0 0 Z " fill="#FFDC5F" transform="translate(124,87)"/>
<path d="M0 0 C3.77056169 -0.11798604 7.54063765 -0.18783864 11.3125 -0.25 C12.8912793 -0.30027344 12.8912793 -0.30027344 14.50195312 -0.3515625 C24.53300552 -0.47502161 33.08446019 1.62122579 40.66015625 8.4375 C44.11233925 12.46336938 44.20094317 15.77547749 44 21 C34.88489494 23.58643713 26.56489042 21.94611846 18.34375 17.59375 C11.31096233 13.40568543 5.28291559 8.26844865 0 2 C0 1.34 0 0.68 0 0 Z " fill="#FFDC5E" transform="translate(348,58)"/>
<path d="M0 0 C2.31 0 4.62 0 7 0 C7 24.75 7 49.5 7 75 C15.58 75 24.16 75 33 75 C33 75.66 33 76.32 33 77 C22.11 77 11.22 77 0 77 C0 51.59 0 26.18 0 0 Z " fill="#B2C1D7" transform="translate(51,405)"/>
<path d="M0 0 C2.31 0 4.62 0 7 0 C7 24.75 7 49.5 7 75 C13.93 75 20.86 75 28 75 C19.63074409 79.18462795 9.35711257 77 0 77 C0 51.59 0 26.18 0 0 Z " fill="#B2C1D7" transform="translate(99,405)"/>
<path d="M0 0 C1.11439503 3.6169775 0.61733994 5.90592662 -0.38543701 9.54992676 C-1.66795472 14.66292961 -2.35030655 19.9052557 -3.1640625 25.109375 C-3.36099701 26.35374329 -3.55793152 27.59811157 -3.76083374 28.88018799 C-4.17433982 31.49880642 -4.58642733 34.11759947 -4.99609375 36.73681641 C-5.52053602 40.08873097 -6.05098619 43.43966189 -6.58326149 46.79034042 C-7.09243224 50.00036895 -7.59681569 53.21114834 -8.1015625 56.421875 C-8.2921524 57.62293884 -8.48274231 58.82400269 -8.67910767 60.0614624 C-8.85283905 61.17652161 -9.02657043 62.29158081 -9.20556641 63.44042969 C-9.35941803 64.42001648 -9.51326965 65.39960327 -9.67178345 66.40887451 C-10.0837769 69.22607675 -10.0837769 69.22607675 -10 73 C-6.7 73 -3.4 73 0 73 C0 73.99 0 74.98 0 76 C-2.31 76 -4.62 76 -7 76 C-7 76.66 -7 77.32 -7 78 C-10.63 78 -14.26 78 -18 78 C-17.43349096 68.99956369 -16.40034498 60.16111864 -15.00390625 51.25390625 C-14.71349709 49.37178688 -14.71349709 49.37178688 -14.41722107 47.4516449 C-14.01032511 44.82354875 -13.60147546 42.19585266 -13.18920898 39.56860352 C-12.66335208 36.21547196 -12.14677831 32.86098527 -11.63281345 29.50601292 C-11.13655583 26.27535863 -10.63237042 23.04594406 -10.12890625 19.81640625 C-9.94550186 18.61947647 -9.76209747 17.42254669 -9.57313538 16.18934631 C-9.39632736 15.07055588 -9.21951935 13.95176544 -9.03735352 12.79907227 C-8.88492691 11.82124283 -8.73250031 10.84341339 -8.57545471 9.83595276 C-7.95613408 6.78382021 -7.03990009 3.93295363 -6 1 C-4.02 0.67 -2.04 0.34 0 0 Z " fill="#B3C1D8" transform="translate(323,404)"/>
<path d="M0 0 C1.49732367 2.99464733 1.0726552 5.68149235 1.02172852 9.02001953 C1.0073172 10.10310394 1.0073172 10.10310394 0.99261475 11.20806885 C0.95957805 13.59974782 0.91926365 15.99124677 0.87890625 18.3828125 C0.85460969 20.03904583 0.8307659 21.69528586 0.80735779 23.35153198 C0.74447066 27.71473816 0.67541716 32.07782601 0.60510254 36.44091797 C0.53446085 40.89154666 0.46961898 45.34225937 0.40429688 49.79296875 C0.27522488 58.52873885 0.13964195 67.2643925 0 76 C1.32 76 2.64 76 4 76 C4 76.66 4 77.32 4 78 C0.37 78 -3.26 78 -7 78 C-7 52.59 -7 27.18 -7 1 C-3.535 0.505 -3.535 0.505 0 0 Z " fill="#B6C4DA" transform="translate(395,404)"/>
<path d="M0 0 C2.31 0 4.62 0 7 0 C7 24.75 7 49.5 7 75 C8.65 75 10.3 75 12 75 C12 75.66 12 76.32 12 77 C8.04 77 4.08 77 0 77 C0 51.59 0 26.18 0 0 Z " fill="#B2C1D7" transform="translate(360,405)"/>
<path d="M0 0 C2.31 0 4.62 0 7 0 C7 24.75 7 49.5 7 75 C8.65 75 10.3 75 12 75 C12 75.66 12 76.32 12 77 C8.04 77 4.08 77 0 77 C0 51.59 0 26.18 0 0 Z " fill="#B2C1D7" transform="translate(253,405)"/>
<path d="M0 0 C1 2 1 2 0.08349609 4.89111328 C-1.5115599 10.09762947 -1.32473064 15.33890894 -1.3359375 20.7421875 C-1.3425943 21.86513214 -1.3492511 22.98807678 -1.35610962 24.14505005 C-1.36620586 26.51351287 -1.37092758 28.88200396 -1.37060547 31.25048828 C-1.3749773 34.85627507 -1.41132754 38.46083577 -1.44921875 42.06640625 C-1.45508793 44.37499584 -1.45905664 46.68359121 -1.4609375 48.9921875 C-1.47530853 50.06121307 -1.48967957 51.13023865 -1.50448608 52.23165894 C-1.46470178 58.81234818 -0.6929893 64.40641907 3 70 C7.06928144 73.6483679 11.72166326 74.56911537 17 75 C14.37167657 77.62832343 13.04065032 77.35861892 9.375 77.4375 C3.40669894 77.33002759 -0.65967471 76.17674519 -5 72 C-8.04673696 67.18418997 -9.11521146 62.80714669 -9.16113281 57.17480469 C-9.17074036 56.2199115 -9.1803479 55.26501831 -9.19024658 54.28118896 C-9.19449646 53.25511536 -9.19874634 52.22904175 -9.203125 51.171875 C-9.20882507 50.10890198 -9.21452515 49.04592896 -9.22039795 47.95074463 C-9.2298402 45.70138543 -9.23637885 43.45201244 -9.24023438 41.20263672 C-9.24992428 37.77676983 -9.28094921 34.351507 -9.3125 30.92578125 C-9.31903205 28.73698272 -9.32428173 26.54817991 -9.328125 24.359375 C-9.3404718 23.34139832 -9.3528186 22.32342163 -9.36553955 21.27459717 C-9.34498668 14.64870898 -8.90001872 8.38688318 -4.39453125 3.125 C-2.9296875 2.08333333 -1.46484375 1.04166667 0 0 Z " fill="#B2C1D7" transform="translate(211,406)"/>
<path d="M0 0 C2.75927344 2.75927344 2.51783243 5.21154052 3 9 C3.33 9.33 3.66 9.66 4 10 C5.17447342 13.33287396 6.12981083 16.73499489 7.125 20.125 C7.41503906 21.0634375 7.70507812 22.001875 8.00390625 22.96875 C9.60638436 28.44324459 10.34400823 32.42313826 9 38 C9.66 37.34 10.32 36.68 11 36 C11.38063221 38.3260857 11.71269945 40.66055264 12 43 C11.505 43.495 11.505 43.495 11 44 C11.28604898 45.67542976 11.61781233 47.34385343 12 49 C12.66 48.34 13.32 47.68 14 47 C14.33 49.97 14.66 52.94 15 56 C18.96 56 22.92 56 27 56 C27 56.99 27 57.98 27 59 C24.69 59 22.38 59 20 59 C20 59.66 20 60.32 20 61 C15.71 61 11.42 61 7 61 C5.68 56.05 4.36 51.1 3 46 C2.67 48.97 2.34 51.94 2 55 C1.34 55 0.68 55 0 55 C0 36.85 0 18.7 0 0 Z " fill="#AEBDD5" transform="translate(407,421)"/>
<path d="M0 0 C3.96 0 7.92 0 12 0 C12 0.33 12 0.66 12 1 C8.37 1 4.74 1 1 1 C1.00444122 1.7553302 1.00888245 2.5106604 1.01345825 3.28887939 C1.05354711 10.41023953 1.08399054 17.53154487 1.10362434 24.65298843 C1.11405763 28.31411812 1.12820844 31.97515449 1.15087891 35.63623047 C1.17262364 39.16995917 1.18457205 42.70359816 1.18975449 46.23738861 C1.19524344 48.24042217 1.21085381 50.24341969 1.22659302 52.24639893 C1.22674408 53.46736267 1.22689514 54.68832642 1.22705078 55.94628906 C1.231492 57.02106506 1.23593323 58.09584106 1.24050903 59.20318604 C0.99815921 62.02140607 0.54804375 63.65294809 -1 66 C-3.70879335 67.35439668 -6.00933268 67.06501451 -9 67 C-8.01 66.505 -8.01 66.505 -7 66 C-7 46.86 -7 27.72 -7 8 C-5.02 7.67 -3.04 7.34 -1 7 C-0.67 4.69 -0.34 2.38 0 0 Z " fill="#A6B7D1" transform="translate(183,398)"/>
<path d="M0 0 C2 1 2 1 2.68359375 2.99609375 C2.93238281 3.80175781 3.18117188 4.60742188 3.4375 5.4375 C4.35142244 7.94421187 4.35142244 7.94421187 6 10 C9.62441545 11.39118977 13.13835459 11.79360171 17 12 C14.66666667 14.33333333 12.33333333 16.66666667 10 19 C9.97831363 21.90675183 9.97831363 21.90675183 10.375 25.125 C10.48585938 26.22070312 10.59671875 27.31640625 10.7109375 28.4453125 C10.80632812 29.28835938 10.90171875 30.13140625 11 31 C6.25 29.1484375 6.25 29.1484375 4 27.8125 C1.25084612 26.69565624 -0.19246482 27.10980592 -3 28 C-3.886875 28.53625 -4.77375 29.0725 -5.6875 29.625 C-6.8321875 30.305625 -6.8321875 30.305625 -8 31 C-8.66 30.67 -9.32 30.34 -10 30 C-9.835 29.484375 -9.67 28.96875 -9.5 28.4375 C-8.80400137 25.04450666 -8.58825744 22.47040154 -9 19 C-10.7404098 16.39192233 -12.76328849 14.19011336 -15 12 C-14.33613281 11.97164063 -13.67226562 11.94328125 -12.98828125 11.9140625 C-10.04016032 11.59557936 -7.72926188 11.18337462 -5 10 C-2.66397892 6.89899619 -1.27976527 3.65069881 0 0 Z " fill="#FFDC60" transform="translate(254,323)"/>
<path d="M0 0 C4.62 0 9.24 0 14 0 C14 11.55 14 23.1 14 35 C17.63 35 21.26 35 25 35 C25 35.99 25 36.98 25 38 C22.69 38 20.38 38 18 38 C18 38.66 18 39.32 18 40 C14.04 40 10.08 40 6 40 C6 29.11 6 18.22 6 7 C4.35 7 2.7 7 1 7 C1 6.34 1 5.68 1 5 C4.96 5 8.92 5 13 5 C13 4.34 13 3.68 13 3 C8.71 3 4.42 3 0 3 C0 2.01 0 1.02 0 0 Z " fill="#AFBFD6" transform="translate(273,442)"/>
<path d="M0 0 C2.42333959 2.34516735 2.93019457 4.16101778 3.20703125 7.48828125 C3.31653226 14.36693548 3.31653226 14.36693548 2 17 C5.63 17 9.26 17 13 17 C13 18.32 13 19.64 13 21 C6.97403427 22.0712828 1.11090483 22.09945415 -5 22 C-5.04898438 21.24074219 -5.09796875 20.48148437 -5.1484375 19.69921875 C-5.22320312 18.70535156 -5.29796875 17.71148437 -5.375 16.6875 C-5.44460937 15.70136719 -5.51421875 14.71523438 -5.5859375 13.69921875 C-5.83865472 10.78471567 -5.83865472 10.78471567 -8 8 C-8.33 21.86 -8.66 35.72 -9 50 C-9.66 49.67 -10.32 49.34 -11 49 C-11.0494981 42.96770418 -11.08576625 36.93552704 -11.10986328 30.90307617 C-11.11991069 28.85162293 -11.13355092 26.80018396 -11.15087891 24.7487793 C-11.17518246 21.79732738 -11.18649582 18.8460651 -11.1953125 15.89453125 C-11.21079636 14.52238213 -11.21079636 14.52238213 -11.22659302 13.12251282 C-11.22803779 4.89246707 -11.22803779 4.89246707 -9 1 C-5.88122044 -0.55938978 -3.42744229 -0.3607834 0 0 Z " fill="#728CB5" transform="translate(232,409)"/>
<path d="M0 0 C7.92 0 15.84 0 24 0 C24 0.33 24 0.66 24 1 C16.41 1 8.82 1 1 1 C1.00523682 3.29179199 1.01047363 5.58358398 1.01586914 7.94482422 C1.03241552 15.50450619 1.04347544 23.06418894 1.05181217 30.6238842 C1.0570378 35.20873851 1.06412967 39.79357431 1.07543945 44.37841797 C1.08627967 48.80041817 1.09227925 53.22240054 1.09487724 57.64441299 C1.09672944 59.33416144 1.10034614 61.02390887 1.10573006 62.71364975 C1.11295551 65.07458378 1.1139903 67.43544347 1.11352539 69.79638672 C1.11712067 70.49985229 1.12071594 71.20331787 1.12442017 71.92810059 C1.11405216 76.77189568 1.11405216 76.77189568 0 79 C3.85499569 78.91857227 7.70847275 78.80577646 11.5625 78.6875 C12.64853516 78.66494141 13.73457031 78.64238281 14.85351562 78.61914062 C22.89148138 78.35039405 28.68038666 77.3084752 35 72 C33.64231796 76.88765533 31.32965579 78.52591098 27 81 C23.82212459 82.0592918 21.57411057 82.11458939 18.23828125 82.09765625 C17.12001953 82.09443359 16.00175781 82.09121094 14.84960938 82.08789062 C13.68236328 82.07951172 12.51511719 82.07113281 11.3125 82.0625 C10.13365234 82.05798828 8.95480469 82.05347656 7.74023438 82.04882812 C4.82677211 82.03703273 1.91341137 82.0205727 -1 82 C-1.02317862 72.04680532 -1.04094327 62.09361707 -1.05181217 52.14040089 C-1.0570289 47.51863972 -1.06410463 42.89689702 -1.07543945 38.27514648 C-1.08631127 33.81422939 -1.09228596 29.35333006 -1.09487724 24.89240074 C-1.09672374 23.19117643 -1.10032947 21.48995308 -1.10573006 19.78873634 C-1.11299745 17.40446502 -1.11398853 15.02026696 -1.11352539 12.63598633 C-1.11712067 11.93395584 -1.12071594 11.23192535 -1.12442017 10.50862122 C-1.11659342 6.78068064 -0.74148914 3.70744569 0 0 Z " fill="#6B87B2" transform="translate(107,398)"/>
<path d="M0 0 C4.95 0 9.9 0 15 0 C15 5.28 15 10.56 15 16 C10.05 16 5.1 16 0 16 C0 10.72 0 5.44 0 0 Z " fill="#66A7C2" transform="translate(250,129)"/>
<path d="M0 0 C5.28 0 10.56 0 16 0 C16 6.27 16 12.54 16 19 C17.65 19 19.3 19 21 19 C21 19.66 21 20.32 21 21 C17.04 21 13.08 21 9 21 C8.14778004 17.59112017 7.89216245 15.19565369 7.9375 11.75 C7.94652344 10.85796875 7.95554687 9.9659375 7.96484375 9.046875 C7.97644531 8.37140625 7.98804688 7.6959375 8 7 C5.69 7 3.38 7 1 7 C0.67 9.64 0.34 12.28 0 15 C-0.66 14.67 -1.32 14.34 -2 14 C-1.34 9.38 -0.68 4.76 0 0 Z " fill="#B4C2D8" transform="translate(325,461)"/>
<path d="M0 0 C0.66 0.33 1.32 0.66 2 1 C0.35 2.65 -1.3 4.3 -3 6 C-2.01 6.66 -1.02 7.32 0 8 C0.4765625 10.0234375 0.4765625 10.0234375 0.625 12.375 C0.79192737 14.75172773 0.95817116 16.85346585 1.61328125 19.1484375 C2 21 2 21 0.5625 23.25 C0.046875 23.8275 -0.46875 24.405 -1 25 C-1 24.34 -1 23.68 -1 23 C-2.39025391 23.01740234 -2.39025391 23.01740234 -3.80859375 23.03515625 C-5.00613281 23.04417969 -6.20367187 23.05320312 -7.4375 23.0625 C-8.63246094 23.07410156 -9.82742187 23.08570313 -11.05859375 23.09765625 C-14 23 -14 23 -15 22 C-15.23192865 20.48530552 -15.41215238 18.96245438 -15.5625 17.4375 C-15.64628906 16.61121094 -15.73007813 15.78492188 -15.81640625 14.93359375 C-15.87699219 14.29550781 -15.93757812 13.65742188 -16 13 C-15.40219727 12.89115479 -14.80439453 12.78230957 -14.18847656 12.67016602 C-11.73838395 11.91988665 -10.75034709 11.10090189 -8.984375 9.27734375 C-8.45585937 8.73916016 -7.92734375 8.20097656 -7.3828125 7.64648438 C-6.57457031 6.80053711 -6.57457031 6.80053711 -5.75 5.9375 C-4.91855469 5.08575195 -4.91855469 5.08575195 -4.0703125 4.21679688 C-2.70665786 2.81787531 -1.35239583 1.40980886 0 0 Z " fill="#DBDEE0" transform="translate(264,236)"/>
<path d="M0 0 C0.66 0.66 1.32 1.32 2 2 C2.66 1.67 3.32 1.34 4 1 C6.29612756 14.6332574 6.29612756 14.6332574 6 21 C6.33 21 6.66 21 7 21 C6.67 24.3 6.34 27.6 6 31 C2.7 31 -0.6 31 -4 31 C-3.85962479 29.18706911 -3.71255111 27.3746557 -3.5625 25.5625 C-3.48128906 24.55316406 -3.40007812 23.54382813 -3.31640625 22.50390625 C-3 20 -3 20 -2 19 C-2 18.01 -2 17.02 -2 16 C-2 13 -2 13 -1 12 C-1 11.195625 -1 10.39125 -1 9.5625 C-1 7 -1 7 0 5 C0.0396713 3.33380554 0.04384447 1.66608987 0 0 Z " fill="#A5B6D0" transform="translate(331,420)"/>
<path d="M0 0 C4.68139254 -0.02465288 9.36274759 -0.04283739 14.04418945 -0.05493164 C15.63794614 -0.05997157 17.23169819 -0.0668035 18.82543945 -0.07543945 C21.11150253 -0.08751999 23.39750467 -0.09323155 25.68359375 -0.09765625 C26.40026718 -0.10281754 27.11694061 -0.10797882 27.85533142 -0.11329651 C29.57063672 -0.11349263 31.28581266 -0.06192007 33 0 C34 1 34 1 34.09765625 3.50390625 C34.08605469 4.51324219 34.07445312 5.52257812 34.0625 6.5625 C34.05347656 7.57441406 34.04445312 8.58632813 34.03515625 9.62890625 C34.02355469 10.41136719 34.01195312 11.19382812 34 12 C33.34 12.33 32.68 12.66 32 13 C32 14.32 32 15.64 32 17 C25.6368234 18.1569412 19.46395007 18.07262865 13 18 C13 22.95 13 27.9 13 33 C12.34 33 11.68 33 11 33 C11 25.74 11 18.48 11 11 C17.93 11 24.86 11 32 11 C32 7.7 32 4.4 32 1 C21.44 1 10.88 1 0 1 C0 0.67 0 0.34 0 0 Z " fill="#7C95BB" transform="translate(59,398)"/>
<path d="M0 0 C5.28 0 10.56 0 16 0 C16 0.33 16 0.66 16 1 C11.05 1 6.1 1 1 1 C1 26.74 1 52.48 1 79 C4.3 79 7.6 79 11 79 C11 79.99 11 80.98 11 82 C7.04 82 3.08 82 -1 82 C-1.02322472 72.48976802 -1.04096659 62.97954589 -1.05181217 53.46929169 C-1.05701889 49.05275975 -1.06407619 44.63624729 -1.07543945 40.21972656 C-1.08634715 35.95331126 -1.09229348 31.68691463 -1.09487724 27.42048645 C-1.09671733 25.79710089 -1.10031045 24.1737163 -1.10573006 22.55033875 C-1.11304525 20.26726108 -1.11398656 17.98425947 -1.11352539 15.70117188 C-1.115746 14.40433472 -1.11796661 13.10749756 -1.12025452 11.7713623 C-0.99281271 7.77459589 -0.55436576 3.9574264 0 0 Z " fill="#8BA1C2" transform="translate(396,398)"/>
<path d="M0 0 C3.96 0 7.92 0 12 0 C12 0.33 12 0.66 12 1 C8.37 1 4.74 1 1 1 C1.00222061 1.94769257 1.00444122 2.89538513 1.00672913 3.87179565 C1.02697309 12.78915414 1.04197821 21.70650798 1.05181217 30.6238842 C1.0570378 35.20873851 1.06412967 39.79357431 1.07543945 44.37841797 C1.08627967 48.80041817 1.09227925 53.22240054 1.09487724 57.64441299 C1.09672944 59.33416144 1.10034614 61.02390887 1.10573006 62.71364975 C1.11295551 65.07458378 1.1139903 67.43544347 1.11352539 69.79638672 C1.11712067 70.49985229 1.12071594 71.20331787 1.12442017 71.92810059 C1.11405216 76.77189568 1.11405216 76.77189568 0 79 C3.63 79 7.26 79 11 79 C11 79.99 11 80.98 11 82 C7.04 82 3.08 82 -1 82 C-1.02317862 72.04680532 -1.04094327 62.09361707 -1.05181217 52.14040089 C-1.0570289 47.51863972 -1.06410463 42.89689702 -1.07543945 38.27514648 C-1.08631127 33.81422939 -1.09228596 29.35333006 -1.09487724 24.89240074 C-1.09672374 23.19117643 -1.10032947 21.48995308 -1.10573006 19.78873634 C-1.11299745 17.40446502 -1.11398853 15.02026696 -1.11352539 12.63598633 C-1.11712067 11.93395584 -1.12071594 11.23192535 -1.12442017 10.50862122 C-1.11659342 6.78068064 -0.74148914 3.70744569 0 0 Z " fill="#6783B0" transform="translate(261,398)"/>
<path d="M0 0 C3 1 3 1 4 3 C4.08934406 4.41973273 4.11758978 5.84357791 4.11352539 7.26611328 C4.11344986 8.14687531 4.11337433 9.02763733 4.11329651 9.93508911 C4.10813522 10.88721283 4.10297394 11.83933655 4.09765625 12.8203125 C4.0962413 13.79410858 4.09482635 14.76790466 4.09336853 15.77120972 C4.08775973 18.88917073 4.07520573 22.0070606 4.0625 25.125 C4.05748613 27.23567605 4.05292303 29.34635322 4.04882812 31.45703125 C4.03778745 36.63804521 4.02104073 41.81901752 4 47 C2.68 47 1.36 47 0 47 C0 31.49 0 15.98 0 0 Z " fill="#F6F8FA" transform="translate(120,417)"/>
<path d="M0 0 C2.31 0 4.62 0 7 0 C7 8.58 7 17.16 7 26 C4.69 26 2.38 26 0 26 C0 17.42 0 8.84 0 0 Z " fill="#B2C1D7" transform="translate(279,405)"/>
<path d="M0 0 C1.40044041 11.628657 1.09657994 23.30936996 1 35 C0.67 35 0.34 35 0 35 C0.00902344 34.0821875 0.01804687 33.164375 0.02734375 32.21875 C-0.15864792 24.52031224 -0.70849686 19.83865339 -6.30859375 14.35546875 C-7.96770088 12.9285018 -7.96770088 12.9285018 -10 12 C-10.66 12.66 -11.32 13.32 -12 14 C-12.75 12.375 -12.75 12.375 -13 10 C-10.2369441 4.69493268 -6.33809137 0 0 0 Z " fill="#15639D" transform="translate(353,148)"/>
<path d="M0 0 C0.33 0 0.66 0 1 0 C1.01458252 1.3003418 1.02916504 2.60068359 1.04418945 3.94042969 C1.10264905 8.81618226 1.17987481 13.69149575 1.26245117 18.56689453 C1.2954781 20.66740738 1.32357739 22.76800423 1.34643555 24.86865234 C0.53337351 43.43020121 0.53337351 43.43020121 7.5 59.6875 C12.8970667 62.52096002 18.01915257 62.61158732 24 62 C27.17772933 60.95595406 30.07579863 59.61733607 33 58 C31.29844492 61.78556979 29.75114747 63.12442627 26 65 C20.68614566 66.58970956 15.00243389 67.0503395 9.7109375 65.19921875 C4.07727307 62.12918814 1.79497271 58.0328869 0 52 C-0.50061453 47.90178579 -0.46865736 43.86968534 -0.390625 39.74609375 C-0.38496521 38.60463394 -0.37930542 37.46317413 -0.37347412 36.28712463 C-0.35122749 32.67014192 -0.30105107 29.05417924 -0.25 25.4375 C-0.22991995 22.97332168 -0.21167183 20.50912771 -0.1953125 18.04492188 C-0.15140112 12.02960462 -0.08460644 6.01487522 0 0 Z " fill="#607EAC" transform="translate(209,415)"/>
<path d="M0 0 C2.31 0 4.62 0 7 0 C7 9.9 7 19.8 7 30 C4.22868097 25.84302146 3.18931869 21.45939162 1.8125 16.6875 C1.52697266 15.74970703 1.24144531 14.81191406 0.94726562 13.84570312 C-0.48911014 8.88653715 -1.48321157 5.11836594 0 0 Z " fill="#B0BFD6" transform="translate(416,405)"/>
<path d="M0 0 C2.75927344 2.75927344 2.51783243 5.21154052 3 9 C3.33 9.33 3.66 9.66 4 10 C6.4773778 17.33264031 8.62187044 24.22661946 8 32 C6 29 6 29 3 18 C2.34 30.21 1.68 42.42 1 55 C0.67 55 0.34 55 0 55 C0 36.85 0 18.7 0 0 Z " fill="#829ABE" transform="translate(407,421)"/>
<path d="M0 0 C1.97909398 -0.02686553 3.95828971 -0.04633375 5.9375 -0.0625 C7.03964844 -0.07410156 8.14179688 -0.08570313 9.27734375 -0.09765625 C12 0 12 0 13 1 C13.12685806 3.63746756 13.18520617 6.23709166 13.1875 8.875 C13.19974609 9.60847656 13.21199219 10.34195312 13.22460938 11.09765625 C13.23509566 14.93563514 13.17768617 16.73347074 11 20 C9.33586345 16.6717269 10.18132594 13.00266027 10.4375 9.375 C10.48970703 8.57320313 10.54191406 7.77140625 10.59570312 6.9453125 C10.72548371 4.96320897 10.86209735 2.98155501 11 1 C7.7 1 4.4 1 1 1 C1.04640625 1.88042969 1.0928125 2.76085937 1.140625 3.66796875 C1.17671875 4.82941406 1.2128125 5.99085938 1.25 7.1875 C1.29640625 8.33605469 1.3428125 9.48460937 1.390625 10.66796875 C0.92314941 14.65553552 -0.12345964 16.24673994 -3 19 C-6.25 19.3125 -6.25 19.3125 -9 19 C-8.34 18.67 -7.68 18.34 -7 18 C-7 14.7 -7 11.4 -7 8 C-5.02 8 -3.04 8 -1 8 C-0.67 5.36 -0.34 2.72 0 0 Z " fill="#96AAC9" transform="translate(234,446)"/>
<path d="M0 0 C3.5625 0.1875 3.5625 0.1875 5.5625 2.1875 C5.7578125 5.2265625 5.7578125 5.2265625 5.6875 8.8125 C5.66945312 10.00101562 5.65140625 11.18953125 5.6328125 12.4140625 C5.60960937 13.32929688 5.58640625 14.24453125 5.5625 15.1875 C9.5225 15.1875 13.4825 15.1875 17.5625 15.1875 C17.5625 15.5175 17.5625 15.8475 17.5625 16.1875 C11.53653427 17.2587828 5.67340483 17.28695415 -0.4375 17.1875 C-0.47488281 16.45144531 -0.51226562 15.71539062 -0.55078125 14.95703125 C-0.96734473 7.58337342 -0.96734473 7.58337342 -4.4375 1.1875 C-3.4375 0.1875 -3.4375 0.1875 0 0 Z " fill="#B1C0D6" transform="translate(227.4375,413.8125)"/>
<path d="M0 0 C4.62 0 9.24 0 14 0 C14 11.55 14 23.1 14 35 C17.63 35 21.26 35 25 35 C25 35.99 25 36.98 25 38 C21.04 38 17.08 38 13 38 C13 26.45 13 14.9 13 3 C8.71 3 4.42 3 0 3 C0 2.01 0 1.02 0 0 Z " fill="#9DB0CC" transform="translate(273,442)"/>
<path d="M0 0 C0.33 0 0.66 0 1 0 C1 24.42 1 48.84 1 74 C4.63 74 8.26 74 12 74 C12 74.99 12 75.98 12 77 C8.04 77 4.08 77 0 77 C0 51.59 0 26.18 0 0 Z " fill="#6B86B2" transform="translate(367,403)"/>
<path d="M0 0 C0.391875 0.556875 0.78375 1.11375 1.1875 1.6875 C4.26292719 5.6113209 7.29805306 9.14418731 12 11 C18.53097453 11.70039699 24.38833008 11.74111328 30 8 C30.99 7.34 31.98 6.68 33 6 C31.50521886 9.80489745 29.30557786 11.66190835 26 14 C20.47095465 15.84301512 14.05495694 16.12500002 8.5390625 14.09375 C4.13182951 11.53788254 1.67940004 8.93323762 0 4 C0 2.68 0 1.36 0 0 Z " fill="#5172A5" transform="translate(159,466)"/>
<path d="M0 0 C0 3 0 3 -2.1875 5.5625 C-6.53841479 9.33329282 -10.03849617 10.25627277 -15.73828125 10.1953125 C-17.33833008 10.18564453 -17.33833008 10.18564453 -18.97070312 10.17578125 C-20.62489258 10.15064453 -20.62489258 10.15064453 -22.3125 10.125 C-23.43462891 10.11597656 -24.55675781 10.10695313 -25.71289062 10.09765625 C-28.47547909 10.07414486 -31.23762932 10.04128155 -34 10 C-34 9.01 -34 8.02 -34 7 C-32.9644397 6.97812622 -32.9644397 6.97812622 -31.90795898 6.95581055 C-28.7506034 6.88089383 -25.59425499 6.78437783 -22.4375 6.6875 C-21.35146484 6.66494141 -20.26542969 6.64238281 -19.14648438 6.61914062 C-12.23279749 6.38798392 -6.47999376 6.0309623 -1.0625 1.3125 C-0.5365625 0.6628125 -0.5365625 0.6628125 0 0 Z " fill="#5172A4" transform="translate(141,470)"/>
<path d="M0 0 C9 0 9 0 11.5625 2 C12.036875 2.66 12.51125 3.32 13 4 C12.67 4.99 12.34 5.98 12 7 C11.67 5.68 11.34 4.36 11 3 C7.7 3 4.4 3 1 3 C1 3.66 1 4.32 1 5 C3.31 5 5.62 5 8 5 C8 5.33 8 5.66 8 6 C5.69 6 3.38 6 1 6 C1 22.17 1 38.34 1 55 C0.67 55 0.34 55 0 55 C0 36.85 0 18.7 0 0 Z " fill="#6986B1" transform="translate(119,409)"/>
<path d="M0 0 C2.31 0 4.62 0 7 0 C7.33 0.99 7.66 1.98 8 3 C8.66 3 9.32 3 10 3 C10.02698189 4.62490954 10.04638757 6.24994633 10.0625 7.875 C10.07410156 8.77992188 10.08570313 9.68484375 10.09765625 10.6171875 C10 13 10 13 9 15 C12.63 15 16.26 15 20 15 C20 15.99 20 16.98 20 18 C16.04 18 12.08 18 8 18 C7.93941406 17.07316406 7.87882813 16.14632813 7.81640625 15.19140625 C7.73261719 13.99386719 7.64882812 12.79632813 7.5625 11.5625 C7.48128906 10.36753906 7.40007812 9.17257812 7.31640625 7.94140625 C7.32343886 5.11429756 7.32343886 5.11429756 6 4 C3.32941149 3.85884839 0.67567762 3.95752893 -2 4 C-1.34 2.68 -0.68 1.36 0 0 Z " fill="#6783B0" transform="translate(225,411)"/>
<path d="M0 0 C0.33 0.66 0.66 1.32 1 2 C6.28 2 11.56 2 17 2 C17 2.99 17 3.98 17 5 C12.05 5 7.1 5 2 5 C2 10.61 2 16.22 2 22 C1.34 22 0.68 22 0 22 C0 14.74 0 7.48 0 0 Z " fill="#5676A7" transform="translate(70,442)"/>
<path d="M0 0 C0.66 0 1.32 0 2 0 C0.64305599 7.27815423 -1.40037961 10.45392704 -7.5625 14.8125 C-13.21749243 16.76604284 -19.49031337 17.20068227 -25.2265625 15.23828125 C-28.59497884 13.4250699 -31.0188923 11.26300091 -33 8 C-32.67 7.34 -32.34 6.68 -32 6 C-30.88625 7.175625 -30.88625 7.175625 -29.75 8.375 C-25.8283087 12.1184326 -23.16994632 13.2975722 -17.75 13.375 C-12.46680522 13.24098037 -8.03624217 12.61837239 -4 9 C-2.24909903 6.11820549 -1.039923 3.20186819 0 0 Z " fill="#E4E9F1" transform="translate(194,462)"/>
<path d="M0 0 C0.7425 0.185625 1.485 0.37125 2.25 0.5625 C4.94990963 0.99203108 6.44631077 0.85122974 9 0 C10.27861615 2.55723229 10.11336609 4.36737102 10.09765625 7.2265625 C10.09443359 8.2578125 10.09121094 9.2890625 10.08789062 10.3515625 C10.07951172 11.43179688 10.07113281 12.51203125 10.0625 13.625 C10.05798828 14.71296875 10.05347656 15.8009375 10.04882812 16.921875 C10.03701776 19.61463789 10.02054778 22.30729188 10 25 C9.67 25 9.34 25 9 25 C9.020625 24.09378906 9.04125 23.18757813 9.0625 22.25390625 C8.94682687 15.421962 8.71335668 10.8964699 3.9375 5.75 C3.20402344 5.06421875 2.47054688 4.3784375 1.71484375 3.671875 C1.14894531 3.12015625 0.58304687 2.5684375 0 2 C0 1.34 0 0.68 0 0 Z " fill="#719EC1" transform="translate(344,158)"/>
<path d="M0 0 C0.66 0.66 1.32 1.32 2 2 C0.52160872 6.54077323 -1.42831028 8.61941316 -5.5 10.875 C-11.58855572 13.62151638 -17.77587219 14.49131394 -24.1796875 12.23046875 C-27.73182424 10.3807046 -29.42298549 8.59166941 -31 5 C-30.47792969 5.3609375 -29.95585937 5.721875 -29.41796875 6.09375 C-23.26175859 9.97507339 -18.22637377 11.13876582 -11 10 C-6.19635311 8.58343856 -3.65002308 7.0562875 -1 2.75 C-0.67 1.8425 -0.34 0.935 0 0 Z " fill="#DAE1EB" transform="translate(244,465)"/>
<path d="M0 0 C0.4125 0.45375 0.825 0.9075 1.25 1.375 C3.06408095 3.05950374 4.75285627 3.99265971 7 5 C6.690625 5.598125 6.38125 6.19625 6.0625 6.8125 C4.89790296 9.08956772 4.89790296 9.08956772 4 12 C1.69 11.67 -0.62 11.34 -3 11 C-3 9.35 -3 7.7 -3 6 C-3.99 5.67 -4.98 5.34 -6 5 C-6 4.67 -6 4.34 -6 4 C-4.35 4 -2.7 4 -1 4 C-0.67 2.68 -0.34 1.36 0 0 Z " fill="#FFDD65" transform="translate(234,316)"/>
<path d="M0 0 C0.4125 0.45375 0.825 0.9075 1.25 1.375 C3.06408095 3.05950374 4.75285627 3.99265971 7 5 C6.34 5.66 5.68 6.32 5 7 C4.3574765 9.06874034 4.3574765 9.06874034 4 11 C1.69 11 -0.62 11 -3 11 C-3.309375 10.21625 -3.61875 9.4325 -3.9375 8.625 C-4.92875038 6.07669872 -4.92875038 6.07669872 -6 4 C-5.38125 3.896875 -4.7625 3.79375 -4.125 3.6875 C-1.63473516 3.12474627 -1.63473516 3.12474627 0 0 Z " fill="#FFDD64" transform="translate(268,315)"/>
<path d="M0 0 C1.98 0 3.96 0 6 0 C6 4.95 6 9.9 6 15 C3.69 15 1.38 15 -1 15 C-1 14.34 -1 13.68 -1 13 C-0.01 12.67 0.98 12.34 2 12 C2.16681109 9.08347826 2.16681109 9.08347826 2 6 C1.34 5.34 0.68 4.68 0 4 C0 2.68 0 1.36 0 0 Z " fill="#62A5C1" transform="translate(259,130)"/>
<path d="M0 0 C0.66 0 1.32 0 2 0 C3.125 7.75 3.125 7.75 2 10 C5.96 10 9.92 10 14 10 C14 10.99 14 11.98 14 13 C9.71 13 5.42 13 1 13 C0.67 8.71 0.34 4.42 0 0 Z " fill="#5978A9" transform="translate(340,467)"/>
<path d="M0 0 C0.99 0 1.98 0 3 0 C3 11.22 3 22.44 3 34 C2.34 33.67 1.68 33.34 1 33 C1.33 29.37 1.66 25.74 2 22 C1.01 22 0.02 22 -1 22 C-1 22.99 -1 23.98 -1 25 C-1.66 25 -2.32 25 -3 25 C-2.67 23.35 -2.34 21.7 -2 20 C-0.68 20 0.64 20 2 20 C2 13.73 2 7.46 2 1 C1.34 0.67 0.68 0.34 0 0 Z " fill="#4BA7CD" transform="translate(319,169)"/>
<path d="M0 0 C-0.66 1.32 -1.32 2.64 -2 4 C-1.030625 3.979375 -0.06125 3.95875 0.9375 3.9375 C4 4 4 4 5 5 C5.1875 7.4375 5.1875 7.4375 5 10 C4.34 10.66 3.68 11.32 3 12 C2.01 12 1.02 12 0 12 C0 11.34 0 10.68 0 10 C0.66 9.67 1.32 9.34 2 9 C2.33 8.01 2.66 7.02 3 6 C2.01 6.66 1.02 7.32 0 8 C-2.1875 7.625 -2.1875 7.625 -4 7 C-4.33 5.35 -4.66 3.7 -5 2 C-2 0 -2 0 0 0 Z " fill="#6AA2CA" transform="translate(346,164)"/>
<path d="M0 0 C1.66666667 1.66666667 3.33333333 3.33333333 5 5 C5.763125 5.598125 6.52625 6.19625 7.3125 6.8125 C9.89324842 10.15791462 9.27650533 12.85241998 9 17 C7.68 16.34 6.36 15.68 5 15 C5.33 14.67 5.66 14.34 6 14 C6.04063832 12.33382885 6.042721 10.66611905 6 9 C3.69 9 1.38 9 -1 9 C-0.01 7.35 0.98 5.7 2 4 C1.34 4 0.68 4 0 4 C0 2.68 0 1.36 0 0 Z " fill="#176197" transform="translate(344,160)"/>
<path d="M0 0 C4 0 4 0 5.75 1.625 C7.30380397 4.57722754 7.22432841 6.70985003 7 10 C5.35 10 3.7 10 2 10 C2 9.34 2 8.68 2 8 C2.66 8 3.32 8 4 8 C4 6.68 4 5.36 4 4 C2.35 4.33 0.7 4.66 -1 5 C-0.67 3.35 -0.34 1.7 0 0 Z " fill="#8FBED5" transform="translate(255,132)"/>
<path d="M0 0 C0.66 0.66 1.32 1.32 2 2 C2.66 1.67 3.32 1.34 4 1 C4.33910994 3.04071515 4.67102704 5.08262621 5 7.125 C5.185625 8.26195312 5.37125 9.39890625 5.5625 10.5703125 C5.97315984 13.78959233 6.22522996 16.76231931 6 20 C5.34 20.66 4.68 21.32 4 22 C3.34 16.39 2.68 10.78 2 5 C1.34 5 0.68 5 0 5 C0 3.35 0 1.7 0 0 Z " fill="#7C95BB" transform="translate(331,420)"/>
<path d="M0 0 C2 3 2 3 2 5 C5.96 5 9.92 5 14 5 C14 5.99 14 6.98 14 8 C9.71 8 5.42 8 1 8 C0.67 5.36 0.34 2.72 0 0 Z " fill="#496CA0" transform="translate(420,472)"/>
<path d="M0 0 C4.62 0 9.24 0 14 0 C14 0.99 14 1.98 14 3 C9.38 3 4.76 3 0 3 C0 2.01 0 1.02 0 0 Z " fill="#4F71A4" transform="translate(326,463)"/>
<path d="M0 0 C2.97 0 5.94 0 9 0 C7.02 2.31 5.04 4.62 3 7 C2.01 6.67 1.02 6.34 0 6 C0 4.02 0 2.04 0 0 Z " fill="#0F80AE" transform="translate(248,243)"/>
<path d="M0 0 C0.66 0.33 1.32 0.66 2 1 C2 4.63 2 8.26 2 12 C-3.94 11.67 -9.88 11.34 -16 11 C-16 10.67 -16 10.34 -16 10 C-10.72 10 -5.44 10 0 10 C0 6.7 0 3.4 0 0 Z " fill="#8EA4C4" transform="translate(87,431)"/>
<path d="M0 0 C8.19256018 -0.63019694 8.19256018 -0.63019694 11.5625 2 C12.036875 2.66 12.51125 3.32 13 4 C12.67 4.99 12.34 5.98 12 7 C11.67 5.68 11.34 4.36 11 3 C7.37 3 3.74 3 0 3 C0 2.01 0 1.02 0 0 Z " fill="#C4CFE0" transform="translate(119,409)"/>
<path d="M0 0 C3.96 0 7.92 0 12 0 C12 0.99 12 1.98 12 3 C8.04 3 4.08 3 0 3 C0 2.01 0 1.02 0 0 Z " fill="#47699F" transform="translate(367,477)"/>
<path d="M0 0 C3.96 0 7.92 0 12 0 C12 0.99 12 1.98 12 3 C8.04 3 4.08 3 0 3 C0 2.01 0 1.02 0 0 Z " fill="#46699F" transform="translate(286,477)"/>
<path d="M0 0 C0.33 0.99 0.66 1.98 1 3 C1.66 3 2.32 3 3 3 C4.7479503 8.24385089 5.19392201 12.47322267 5 18 C3.03723564 15.05585347 2.28266038 12.94101364 1.375 9.5625 C0.98441406 8.14130859 0.98441406 8.14130859 0.5859375 6.69140625 C0 4 0 4 0 0 Z " fill="#6F8AB4" transform="translate(410,435)"/>
<path d="M0 0 C3.375 -0.1875 3.375 -0.1875 7 0 C9 3 9 3 8.625 5.1875 C8.41875 5.785625 8.2125 6.38375 8 7 C7.34 6.01 6.68 5.02 6 4 C4.02252878 3.63702064 4.02252878 3.63702064 1.875 3.8125 C0.59625 3.874375 -0.6825 3.93625 -2 4 C-1.34 2.68 -0.68 1.36 0 0 Z " fill="#5172A5" transform="translate(225,411)"/>
<path d="M0 0 C3.63 0 7.26 0 11 0 C11 0.99 11 1.98 11 3 C7.37 3 3.74 3 0 3 C0 2.01 0 1.02 0 0 Z " fill="#4C6EA2" transform="translate(396,477)"/>
<path d="M0 0 C3.63 0 7.26 0 11 0 C11 0.99 11 1.98 11 3 C7.37 3 3.74 3 0 3 C0 2.01 0 1.02 0 0 Z " fill="#476A9F" transform="translate(312,477)"/>
<path d="M0 0 C3.63 0 7.26 0 11 0 C11 0.99 11 1.98 11 3 C7.37 3 3.74 3 0 3 C0 2.01 0 1.02 0 0 Z " fill="#46699F" transform="translate(261,477)"/>
<path d="M0 0 C0.7425 0.185625 1.485 0.37125 2.25 0.5625 C4.94990963 0.99203108 6.44631077 0.85122974 9 0 C9 2 9 2 7.75 3.6875 C6 5 6 5 3.9375 4.9375 C1.46151135 3.73944098 0.97382182 2.51570636 0 0 Z " fill="#6EA5CC" transform="translate(344,158)"/>
<path d="M0 0 C0.66 0 1.32 0 2 0 C0.125 7.75 0.125 7.75 -1 10 C-1.66 10 -2.32 10 -3 10 C-2.21302675 6.58978257 -1.12880057 3.31114834 0 0 Z " fill="#ABBBD3" transform="translate(194,462)"/>
<path d="M0 0 C0 3 0 3 -1.3125 4.38671875 C-2.875 5.59114583 -4.4375 6.79557292 -6 8 C-6.33 7.34 -6.66 6.68 -7 6 C-5.62209707 3.24419414 -3.62850007 2.51138754 -1 1 C-0.67 0.67 -0.34 0.34 0 0 Z " fill="#6280AD" transform="translate(191,472)"/>
<path d="M0 0 C0.33 0.99 0.66 1.98 1 3 C1.66 3 2.32 3 3 3 C3.625 4.8125 3.625 4.8125 4 7 C3.01 8.485 3.01 8.485 2 10 C0.68373308 6.38026598 0 3.90432869 0 0 Z " fill="#6885B1" transform="translate(417,461)"/>
<path d="M0 0 C-0.33 1.32 -0.66 2.64 -1 4 C-1.66 4 -2.32 4 -3 4 C-2.67 4.99 -2.34 5.98 -2 7 C-2.66 7 -3.32 7 -4 7 C-4 5.68 -4 4.36 -4 3 C-4.66 2.67 -5.32 2.34 -6 2 C-2.25 0 -2.25 0 0 0 Z " fill="#1F699D" transform="translate(349,170)"/>
</svg>
